<mxfile host="app.diagrams.net" agent="Mozilla/5.0 (Macintosh; Intel Mac OS X 10_15_7) AppleWebKit/537.36 (KHTML, like Gecko) Chrome/132.0.0.0 Safari/537.36" version="26.0.11">
  <diagram name="第 1 页" id="xbyy-KR_elHBdSShKpZm">
    <mxGraphModel dx="3187" dy="1744" grid="1" gridSize="10" guides="1" tooltips="1" connect="1" arrows="1" fold="1" page="1" pageScale="1" pageWidth="827" pageHeight="1169" math="0" shadow="0">
      <root>
        <mxCell id="0" />
        <mxCell id="1" parent="0" />
        <mxCell id="gcZu40GBeY7oq4u_h3x9-1" value="" style="rounded=0;whiteSpace=wrap;html=1;dashed=1;strokeWidth=2;strokeColor=#FF3333;fillColor=none;" vertex="1" parent="1">
          <mxGeometry x="1260" y="90" width="1310" height="1500" as="geometry" />
        </mxCell>
        <mxCell id="gcZu40GBeY7oq4u_h3x9-2" value="" style="rounded=0;whiteSpace=wrap;html=1;dashed=1;strokeColor=#FF3333;strokeWidth=2;fillColor=none;" vertex="1" parent="1">
          <mxGeometry x="115" y="90" width="1095" height="1500" as="geometry" />
        </mxCell>
        <mxCell id="gcZu40GBeY7oq4u_h3x9-3" value="借款" style="shape=umlLifeline;perimeter=lifelinePerimeter;whiteSpace=wrap;html=1;container=1;dropTarget=0;collapsible=0;recursiveResize=0;outlineConnect=0;portConstraint=eastwest;newEdgeStyle={&quot;curved&quot;:0,&quot;rounded&quot;:0};strokeWidth=2;" vertex="1" parent="1">
          <mxGeometry x="200" y="100" width="110" height="1340" as="geometry" />
        </mxCell>
        <mxCell id="gcZu40GBeY7oq4u_h3x9-4" value="" style="html=1;points=[[0,0,0,0,5],[0,1,0,0,-5],[1,0,0,0,5],[1,1,0,0,-5]];perimeter=orthogonalPerimeter;outlineConnect=0;targetShapes=umlLifeline;portConstraint=eastwest;newEdgeStyle={&quot;curved&quot;:0,&quot;rounded&quot;:0};" vertex="1" parent="gcZu40GBeY7oq4u_h3x9-3">
          <mxGeometry x="45" y="80" width="20" height="550" as="geometry" />
        </mxCell>
        <mxCell id="gcZu40GBeY7oq4u_h3x9-5" value="" style="html=1;points=[[0,0,0,0,5],[0,1,0,0,-5],[1,0,0,0,5],[1,1,0,0,-5]];perimeter=orthogonalPerimeter;outlineConnect=0;targetShapes=umlLifeline;portConstraint=eastwest;newEdgeStyle={&quot;curved&quot;:0,&quot;rounded&quot;:0};" vertex="1" parent="gcZu40GBeY7oq4u_h3x9-3">
          <mxGeometry x="45" y="740" width="20" height="560" as="geometry" />
        </mxCell>
        <mxCell id="gcZu40GBeY7oq4u_h3x9-6" value="风控机审" style="shape=umlLifeline;perimeter=lifelinePerimeter;whiteSpace=wrap;html=1;container=1;dropTarget=0;collapsible=0;recursiveResize=0;outlineConnect=0;portConstraint=eastwest;newEdgeStyle={&quot;curved&quot;:0,&quot;rounded&quot;:0};strokeWidth=2;" vertex="1" parent="1">
          <mxGeometry x="480" y="100" width="110" height="1340" as="geometry" />
        </mxCell>
        <mxCell id="gcZu40GBeY7oq4u_h3x9-7" value="" style="html=1;points=[[0,0,0,0,5],[0,1,0,0,-5],[1,0,0,0,5],[1,1,0,0,-5]];perimeter=orthogonalPerimeter;outlineConnect=0;targetShapes=umlLifeline;portConstraint=eastwest;newEdgeStyle={&quot;curved&quot;:0,&quot;rounded&quot;:0};" vertex="1" parent="gcZu40GBeY7oq4u_h3x9-6">
          <mxGeometry x="45" y="80" width="20" height="270" as="geometry" />
        </mxCell>
        <mxCell id="gcZu40GBeY7oq4u_h3x9-8" value="" style="endArrow=classic;html=1;rounded=0;strokeWidth=2;" edge="1" parent="gcZu40GBeY7oq4u_h3x9-6" source="gcZu40GBeY7oq4u_h3x9-7" target="gcZu40GBeY7oq4u_h3x9-7">
          <mxGeometry width="50" height="50" relative="1" as="geometry">
            <mxPoint x="70" y="100" as="sourcePoint" />
            <mxPoint x="215" y="140" as="targetPoint" />
            <Array as="points">
              <mxPoint x="100" y="100" />
              <mxPoint x="100" y="140" />
            </Array>
          </mxGeometry>
        </mxCell>
        <mxCell id="gcZu40GBeY7oq4u_h3x9-9" value="查征前风控" style="edgeLabel;html=1;align=center;verticalAlign=middle;resizable=0;points=[];" vertex="1" connectable="0" parent="gcZu40GBeY7oq4u_h3x9-8">
          <mxGeometry x="-0.0111" y="1" relative="1" as="geometry">
            <mxPoint as="offset" />
          </mxGeometry>
        </mxCell>
        <mxCell id="gcZu40GBeY7oq4u_h3x9-10" value="" style="endArrow=classic;html=1;rounded=0;strokeWidth=2;" edge="1" parent="gcZu40GBeY7oq4u_h3x9-6" source="gcZu40GBeY7oq4u_h3x9-7" target="gcZu40GBeY7oq4u_h3x9-7">
          <mxGeometry width="50" height="50" relative="1" as="geometry">
            <mxPoint x="70" y="160" as="sourcePoint" />
            <mxPoint x="70" y="200" as="targetPoint" />
            <Array as="points">
              <mxPoint x="100" y="160" />
              <mxPoint x="100" y="200" />
            </Array>
          </mxGeometry>
        </mxCell>
        <mxCell id="gcZu40GBeY7oq4u_h3x9-11" value="查征路由" style="edgeLabel;html=1;align=center;verticalAlign=middle;resizable=0;points=[];" vertex="1" connectable="0" parent="gcZu40GBeY7oq4u_h3x9-10">
          <mxGeometry x="-0.0111" y="1" relative="1" as="geometry">
            <mxPoint as="offset" />
          </mxGeometry>
        </mxCell>
        <mxCell id="gcZu40GBeY7oq4u_h3x9-12" value="" style="endArrow=classic;html=1;rounded=0;strokeWidth=2;" edge="1" parent="gcZu40GBeY7oq4u_h3x9-6" source="gcZu40GBeY7oq4u_h3x9-7" target="gcZu40GBeY7oq4u_h3x9-7">
          <mxGeometry width="50" height="50" relative="1" as="geometry">
            <mxPoint x="70" y="290" as="sourcePoint" />
            <mxPoint x="70" y="330" as="targetPoint" />
            <Array as="points">
              <mxPoint x="105" y="290" />
              <mxPoint x="105" y="330" />
            </Array>
          </mxGeometry>
        </mxCell>
        <mxCell id="gcZu40GBeY7oq4u_h3x9-13" value="查征后风控" style="edgeLabel;html=1;align=center;verticalAlign=middle;resizable=0;points=[];" vertex="1" connectable="0" parent="gcZu40GBeY7oq4u_h3x9-12">
          <mxGeometry x="-0.0111" y="1" relative="1" as="geometry">
            <mxPoint as="offset" />
          </mxGeometry>
        </mxCell>
        <mxCell id="gcZu40GBeY7oq4u_h3x9-14" value="" style="html=1;points=[[0,0,0,0,5],[0,1,0,0,-5],[1,0,0,0,5],[1,1,0,0,-5]];perimeter=orthogonalPerimeter;outlineConnect=0;targetShapes=umlLifeline;portConstraint=eastwest;newEdgeStyle={&quot;curved&quot;:0,&quot;rounded&quot;:0};" vertex="1" parent="gcZu40GBeY7oq4u_h3x9-6">
          <mxGeometry x="45" y="450" width="20" height="180" as="geometry" />
        </mxCell>
        <mxCell id="gcZu40GBeY7oq4u_h3x9-15" value="" style="endArrow=classic;html=1;rounded=0;strokeWidth=2;" edge="1" parent="gcZu40GBeY7oq4u_h3x9-6" source="gcZu40GBeY7oq4u_h3x9-14" target="gcZu40GBeY7oq4u_h3x9-14">
          <mxGeometry width="50" height="50" relative="1" as="geometry">
            <mxPoint x="70" y="470" as="sourcePoint" />
            <mxPoint x="70" y="510" as="targetPoint" />
            <Array as="points">
              <mxPoint x="100" y="470" />
              <mxPoint x="100" y="490" />
              <mxPoint x="100" y="510" />
            </Array>
          </mxGeometry>
        </mxCell>
        <mxCell id="gcZu40GBeY7oq4u_h3x9-16" value="交易规则" style="edgeLabel;html=1;align=center;verticalAlign=middle;resizable=0;points=[];" vertex="1" connectable="0" parent="gcZu40GBeY7oq4u_h3x9-15">
          <mxGeometry x="-0.0111" y="1" relative="1" as="geometry">
            <mxPoint as="offset" />
          </mxGeometry>
        </mxCell>
        <mxCell id="gcZu40GBeY7oq4u_h3x9-17" value="风控订单(RC)" style="shape=umlLifeline;perimeter=lifelinePerimeter;whiteSpace=wrap;html=1;container=1;dropTarget=0;collapsible=0;recursiveResize=0;outlineConnect=0;portConstraint=eastwest;newEdgeStyle={&quot;curved&quot;:0,&quot;rounded&quot;:0};strokeWidth=2;" vertex="1" parent="1">
          <mxGeometry x="340" y="100" width="110" height="1340" as="geometry" />
        </mxCell>
        <mxCell id="gcZu40GBeY7oq4u_h3x9-18" value="" style="html=1;points=[[0,0,0,0,5],[0,1,0,0,-5],[1,0,0,0,5],[1,1,0,0,-5]];perimeter=orthogonalPerimeter;outlineConnect=0;targetShapes=umlLifeline;portConstraint=eastwest;newEdgeStyle={&quot;curved&quot;:0,&quot;rounded&quot;:0};" vertex="1" parent="gcZu40GBeY7oq4u_h3x9-17">
          <mxGeometry x="45" y="80" width="20" height="320" as="geometry" />
        </mxCell>
        <mxCell id="gcZu40GBeY7oq4u_h3x9-19" value="" style="endArrow=classic;html=1;rounded=0;strokeWidth=2;" edge="1" parent="gcZu40GBeY7oq4u_h3x9-17" source="gcZu40GBeY7oq4u_h3x9-18" target="gcZu40GBeY7oq4u_h3x9-18">
          <mxGeometry width="50" height="50" relative="1" as="geometry">
            <mxPoint x="70" y="350" as="sourcePoint" />
            <mxPoint x="70" y="390" as="targetPoint" />
            <Array as="points">
              <mxPoint x="110" y="350" />
              <mxPoint x="110" y="390" />
            </Array>
          </mxGeometry>
        </mxCell>
        <mxCell id="gcZu40GBeY7oq4u_h3x9-20" value="人审流程" style="edgeLabel;html=1;align=center;verticalAlign=middle;resizable=0;points=[];" vertex="1" connectable="0" parent="gcZu40GBeY7oq4u_h3x9-19">
          <mxGeometry x="-0.0111" y="1" relative="1" as="geometry">
            <mxPoint as="offset" />
          </mxGeometry>
        </mxCell>
        <mxCell id="gcZu40GBeY7oq4u_h3x9-21" value="" style="html=1;points=[[0,0,0,0,5],[0,1,0,0,-5],[1,0,0,0,5],[1,1,0,0,-5]];perimeter=orthogonalPerimeter;outlineConnect=0;targetShapes=umlLifeline;portConstraint=eastwest;newEdgeStyle={&quot;curved&quot;:0,&quot;rounded&quot;:0};" vertex="1" parent="gcZu40GBeY7oq4u_h3x9-17">
          <mxGeometry x="45" y="450" width="20" height="180" as="geometry" />
        </mxCell>
        <mxCell id="gcZu40GBeY7oq4u_h3x9-22" value="风控数据" style="shape=umlLifeline;perimeter=lifelinePerimeter;whiteSpace=wrap;html=1;container=1;dropTarget=0;collapsible=0;recursiveResize=0;outlineConnect=0;portConstraint=eastwest;newEdgeStyle={&quot;curved&quot;:0,&quot;rounded&quot;:0};strokeWidth=2;" vertex="1" parent="1">
          <mxGeometry x="802" y="100" width="110" height="1350" as="geometry" />
        </mxCell>
        <mxCell id="gcZu40GBeY7oq4u_h3x9-23" value="" style="html=1;points=[[0,0,0,0,5],[0,1,0,0,-5],[1,0,0,0,5],[1,1,0,0,-5]];perimeter=orthogonalPerimeter;outlineConnect=0;targetShapes=umlLifeline;portConstraint=eastwest;newEdgeStyle={&quot;curved&quot;:0,&quot;rounded&quot;:0};" vertex="1" parent="gcZu40GBeY7oq4u_h3x9-22">
          <mxGeometry x="45" y="80" width="20" height="230" as="geometry" />
        </mxCell>
        <mxCell id="gcZu40GBeY7oq4u_h3x9-24" value="" style="html=1;points=[[0,0,0,0,5],[0,1,0,0,-5],[1,0,0,0,5],[1,1,0,0,-5]];perimeter=orthogonalPerimeter;outlineConnect=0;targetShapes=umlLifeline;portConstraint=eastwest;newEdgeStyle={&quot;curved&quot;:0,&quot;rounded&quot;:0};" vertex="1" parent="gcZu40GBeY7oq4u_h3x9-22">
          <mxGeometry x="45" y="450" width="20" height="180" as="geometry" />
        </mxCell>
        <mxCell id="gcZu40GBeY7oq4u_h3x9-25" value="" style="html=1;points=[[0,0,0,0,5],[0,1,0,0,-5],[1,0,0,0,5],[1,1,0,0,-5]];perimeter=orthogonalPerimeter;outlineConnect=0;targetShapes=umlLifeline;portConstraint=eastwest;newEdgeStyle={&quot;curved&quot;:0,&quot;rounded&quot;:0};" vertex="1" parent="gcZu40GBeY7oq4u_h3x9-22">
          <mxGeometry x="45" y="1110" width="20" height="90" as="geometry" />
        </mxCell>
        <mxCell id="gcZu40GBeY7oq4u_h3x9-26" value="资产" style="shape=umlLifeline;perimeter=lifelinePerimeter;whiteSpace=wrap;html=1;container=1;dropTarget=0;collapsible=0;recursiveResize=0;outlineConnect=0;portConstraint=eastwest;newEdgeStyle={&quot;curved&quot;:0,&quot;rounded&quot;:0};strokeWidth=2;" vertex="1" parent="1">
          <mxGeometry x="942" y="100" width="110" height="1350" as="geometry" />
        </mxCell>
        <mxCell id="gcZu40GBeY7oq4u_h3x9-27" value="" style="html=1;points=[[0,0,0,0,5],[0,1,0,0,-5],[1,0,0,0,5],[1,1,0,0,-5]];perimeter=orthogonalPerimeter;outlineConnect=0;targetShapes=umlLifeline;portConstraint=eastwest;newEdgeStyle={&quot;curved&quot;:0,&quot;rounded&quot;:0};" vertex="1" parent="gcZu40GBeY7oq4u_h3x9-26">
          <mxGeometry x="45" y="740" width="20" height="220" as="geometry" />
        </mxCell>
        <mxCell id="gcZu40GBeY7oq4u_h3x9-28" value="" style="endArrow=classic;html=1;rounded=0;strokeWidth=2;" edge="1" parent="gcZu40GBeY7oq4u_h3x9-26" source="gcZu40GBeY7oq4u_h3x9-27" target="gcZu40GBeY7oq4u_h3x9-27">
          <mxGeometry width="50" height="50" relative="1" as="geometry">
            <mxPoint x="70" y="760" as="sourcePoint" />
            <mxPoint x="70" y="800" as="targetPoint" />
            <Array as="points">
              <mxPoint x="100" y="760" />
              <mxPoint x="100" y="780" />
              <mxPoint x="100" y="800" />
            </Array>
          </mxGeometry>
        </mxCell>
        <mxCell id="gcZu40GBeY7oq4u_h3x9-29" value="额度扣减" style="edgeLabel;html=1;align=center;verticalAlign=middle;resizable=0;points=[];" vertex="1" connectable="0" parent="gcZu40GBeY7oq4u_h3x9-28">
          <mxGeometry x="-0.0111" y="1" relative="1" as="geometry">
            <mxPoint as="offset" />
          </mxGeometry>
        </mxCell>
        <mxCell id="gcZu40GBeY7oq4u_h3x9-30" value="" style="endArrow=classic;html=1;rounded=0;strokeWidth=2;" edge="1" parent="gcZu40GBeY7oq4u_h3x9-26" source="gcZu40GBeY7oq4u_h3x9-27" target="gcZu40GBeY7oq4u_h3x9-27">
          <mxGeometry width="50" height="50" relative="1" as="geometry">
            <mxPoint x="68" y="910" as="sourcePoint" />
            <mxPoint x="68" y="940" as="targetPoint" />
            <Array as="points">
              <mxPoint x="88" y="910" />
              <mxPoint x="103" y="910" />
              <mxPoint x="103" y="920" />
              <mxPoint x="103" y="940" />
            </Array>
          </mxGeometry>
        </mxCell>
        <mxCell id="gcZu40GBeY7oq4u_h3x9-31" value="" style="html=1;points=[[0,0,0,0,5],[0,1,0,0,-5],[1,0,0,0,5],[1,1,0,0,-5]];perimeter=orthogonalPerimeter;outlineConnect=0;targetShapes=umlLifeline;portConstraint=eastwest;newEdgeStyle={&quot;curved&quot;:0,&quot;rounded&quot;:0};" vertex="1" parent="gcZu40GBeY7oq4u_h3x9-26">
          <mxGeometry x="45" y="970" width="20" height="35" as="geometry" />
        </mxCell>
        <mxCell id="gcZu40GBeY7oq4u_h3x9-32" value="资金平台" style="shape=umlLifeline;perimeter=lifelinePerimeter;whiteSpace=wrap;html=1;container=1;dropTarget=0;collapsible=0;recursiveResize=0;outlineConnect=0;portConstraint=eastwest;newEdgeStyle={&quot;curved&quot;:0,&quot;rounded&quot;:0};strokeWidth=2;" vertex="1" parent="1">
          <mxGeometry x="1082" y="100" width="110" height="1350" as="geometry" />
        </mxCell>
        <mxCell id="gcZu40GBeY7oq4u_h3x9-33" value="" style="html=1;points=[[0,0,0,0,5],[0,1,0,0,-5],[1,0,0,0,5],[1,1,0,0,-5]];perimeter=orthogonalPerimeter;outlineConnect=0;targetShapes=umlLifeline;portConstraint=eastwest;newEdgeStyle={&quot;curved&quot;:0,&quot;rounded&quot;:0};" vertex="1" parent="gcZu40GBeY7oq4u_h3x9-32">
          <mxGeometry x="45" y="740" width="20" height="260" as="geometry" />
        </mxCell>
        <mxCell id="gcZu40GBeY7oq4u_h3x9-34" value="" style="html=1;points=[[0,0,0,0,5],[0,1,0,0,-5],[1,0,0,0,5],[1,1,0,0,-5]];perimeter=orthogonalPerimeter;outlineConnect=0;targetShapes=umlLifeline;portConstraint=eastwest;newEdgeStyle={&quot;curved&quot;:0,&quot;rounded&quot;:0};" vertex="1" parent="gcZu40GBeY7oq4u_h3x9-32">
          <mxGeometry x="45" y="1030" width="20" height="80" as="geometry" />
        </mxCell>
        <mxCell id="gcZu40GBeY7oq4u_h3x9-35" value="" style="endArrow=classic;html=1;rounded=0;strokeWidth=2;" edge="1" parent="gcZu40GBeY7oq4u_h3x9-32">
          <mxGeometry width="50" height="50" relative="1" as="geometry">
            <mxPoint x="65" y="1070" as="sourcePoint" />
            <mxPoint x="65" y="1090" as="targetPoint" />
            <Array as="points">
              <mxPoint x="100" y="1070" />
              <mxPoint x="100" y="1090" />
              <mxPoint x="78" y="1090" />
            </Array>
          </mxGeometry>
        </mxCell>
        <mxCell id="gcZu40GBeY7oq4u_h3x9-36" value="&lt;font&gt;B类资产&lt;/font&gt;&lt;div&gt;&lt;font&gt;未查询过小贷征信&lt;/font&gt;&lt;/div&gt;" style="edgeLabel;html=1;align=center;verticalAlign=middle;resizable=0;points=[];" vertex="1" connectable="0" parent="gcZu40GBeY7oq4u_h3x9-35">
          <mxGeometry x="-0.0111" y="1" relative="1" as="geometry">
            <mxPoint x="47" as="offset" />
          </mxGeometry>
        </mxCell>
        <mxCell id="gcZu40GBeY7oq4u_h3x9-37" value="" style="html=1;points=[[0,0,0,0,5],[0,1,0,0,-5],[1,0,0,0,5],[1,1,0,0,-5]];perimeter=orthogonalPerimeter;outlineConnect=0;targetShapes=umlLifeline;portConstraint=eastwest;newEdgeStyle={&quot;curved&quot;:0,&quot;rounded&quot;:0};" vertex="1" parent="gcZu40GBeY7oq4u_h3x9-32">
          <mxGeometry x="45" y="1210" width="20" height="90" as="geometry" />
        </mxCell>
        <mxCell id="gcZu40GBeY7oq4u_h3x9-38" value="" style="endArrow=block;html=1;rounded=0;strokeWidth=4;endFill=1;" edge="1" parent="1">
          <mxGeometry width="50" height="50" relative="1" as="geometry">
            <mxPoint x="180" y="210" as="sourcePoint" />
            <mxPoint x="230" y="210" as="targetPoint" />
          </mxGeometry>
        </mxCell>
        <mxCell id="gcZu40GBeY7oq4u_h3x9-39" value="" style="endArrow=block;html=1;rounded=0;strokeWidth=2;endFill=1;" edge="1" parent="1">
          <mxGeometry width="50" height="50" relative="1" as="geometry">
            <mxPoint x="265" y="200" as="sourcePoint" />
            <mxPoint x="384.83" y="200" as="targetPoint" />
          </mxGeometry>
        </mxCell>
        <mxCell id="gcZu40GBeY7oq4u_h3x9-40" value="单笔授信" style="edgeLabel;html=1;align=center;verticalAlign=middle;resizable=0;points=[];" vertex="1" connectable="0" parent="gcZu40GBeY7oq4u_h3x9-39">
          <mxGeometry x="0.0292" y="-3" relative="1" as="geometry">
            <mxPoint y="-3" as="offset" />
          </mxGeometry>
        </mxCell>
        <mxCell id="gcZu40GBeY7oq4u_h3x9-41" value="" style="endArrow=block;html=1;rounded=0;strokeWidth=2;endFill=1;" edge="1" parent="1" source="gcZu40GBeY7oq4u_h3x9-18" target="gcZu40GBeY7oq4u_h3x9-7">
          <mxGeometry width="50" height="50" relative="1" as="geometry">
            <mxPoint x="410" y="200" as="sourcePoint" />
            <mxPoint x="520" y="200" as="targetPoint" />
            <Array as="points">
              <mxPoint x="490" y="200" />
            </Array>
          </mxGeometry>
        </mxCell>
        <mxCell id="gcZu40GBeY7oq4u_h3x9-42" value="机审" style="edgeLabel;html=1;align=center;verticalAlign=middle;resizable=0;points=[];" vertex="1" connectable="0" parent="gcZu40GBeY7oq4u_h3x9-41">
          <mxGeometry x="0.0292" y="-3" relative="1" as="geometry">
            <mxPoint y="-3" as="offset" />
          </mxGeometry>
        </mxCell>
        <mxCell id="gcZu40GBeY7oq4u_h3x9-43" value="单笔授信" style="text;html=1;align=center;verticalAlign=middle;resizable=0;points=[];autosize=1;strokeColor=none;fillColor=none;" vertex="1" parent="1">
          <mxGeometry x="115" y="198" width="70" height="30" as="geometry" />
        </mxCell>
        <mxCell id="gcZu40GBeY7oq4u_h3x9-44" value="" style="endArrow=block;html=1;rounded=0;strokeWidth=1;endFill=1;" edge="1" parent="1" source="gcZu40GBeY7oq4u_h3x9-7" target="gcZu40GBeY7oq4u_h3x9-18">
          <mxGeometry width="50" height="50" relative="1" as="geometry">
            <mxPoint x="520" y="430" as="sourcePoint" />
            <mxPoint x="410" y="430" as="targetPoint" />
            <Array as="points">
              <mxPoint x="490" y="430" />
            </Array>
          </mxGeometry>
        </mxCell>
        <mxCell id="gcZu40GBeY7oq4u_h3x9-45" value="机审结果" style="edgeLabel;html=1;align=center;verticalAlign=middle;resizable=0;points=[];" vertex="1" connectable="0" parent="gcZu40GBeY7oq4u_h3x9-44">
          <mxGeometry x="0.0095" relative="1" as="geometry">
            <mxPoint as="offset" />
          </mxGeometry>
        </mxCell>
        <mxCell id="gcZu40GBeY7oq4u_h3x9-46" value="" style="endArrow=block;html=1;rounded=0;strokeWidth=1;endFill=1;" edge="1" parent="1" source="gcZu40GBeY7oq4u_h3x9-18" target="gcZu40GBeY7oq4u_h3x9-4">
          <mxGeometry width="50" height="50" relative="1" as="geometry">
            <mxPoint x="380" y="490" as="sourcePoint" />
            <mxPoint x="270" y="490" as="targetPoint" />
            <Array as="points">
              <mxPoint x="355" y="490" />
            </Array>
          </mxGeometry>
        </mxCell>
        <mxCell id="gcZu40GBeY7oq4u_h3x9-47" value="授信结果" style="edgeLabel;html=1;align=center;verticalAlign=middle;resizable=0;points=[];" vertex="1" connectable="0" parent="gcZu40GBeY7oq4u_h3x9-46">
          <mxGeometry x="0.0095" relative="1" as="geometry">
            <mxPoint as="offset" />
          </mxGeometry>
        </mxCell>
        <mxCell id="gcZu40GBeY7oq4u_h3x9-48" value="" style="endArrow=block;html=1;rounded=0;strokeWidth=4;endFill=1;" edge="1" parent="1">
          <mxGeometry width="50" height="50" relative="1" as="geometry">
            <mxPoint x="170" y="570" as="sourcePoint" />
            <mxPoint x="220" y="570" as="targetPoint" />
          </mxGeometry>
        </mxCell>
        <mxCell id="gcZu40GBeY7oq4u_h3x9-49" value="循环交易" style="text;html=1;align=center;verticalAlign=middle;resizable=0;points=[];autosize=1;strokeColor=none;fillColor=none;" vertex="1" parent="1">
          <mxGeometry x="100" y="550" width="70" height="30" as="geometry" />
        </mxCell>
        <mxCell id="gcZu40GBeY7oq4u_h3x9-50" value="" style="endArrow=block;html=1;rounded=0;strokeWidth=2;endFill=1;entryX=0.029;entryY=0.063;entryDx=0;entryDy=0;entryPerimeter=0;" edge="1" parent="1" source="gcZu40GBeY7oq4u_h3x9-4" target="gcZu40GBeY7oq4u_h3x9-21">
          <mxGeometry width="50" height="50" relative="1" as="geometry">
            <mxPoint x="270" y="570" as="sourcePoint" />
            <mxPoint x="380" y="570" as="targetPoint" />
          </mxGeometry>
        </mxCell>
        <mxCell id="gcZu40GBeY7oq4u_h3x9-51" value="交易请求" style="edgeLabel;html=1;align=center;verticalAlign=middle;resizable=0;points=[];" vertex="1" connectable="0" parent="gcZu40GBeY7oq4u_h3x9-50">
          <mxGeometry x="0.0292" y="-3" relative="1" as="geometry">
            <mxPoint y="-3" as="offset" />
          </mxGeometry>
        </mxCell>
        <mxCell id="gcZu40GBeY7oq4u_h3x9-52" value="" style="endArrow=block;html=1;rounded=0;strokeWidth=2;endFill=1;" edge="1" parent="1" source="gcZu40GBeY7oq4u_h3x9-21">
          <mxGeometry width="50" height="50" relative="1" as="geometry">
            <mxPoint x="410" y="570" as="sourcePoint" />
            <mxPoint x="525" y="570" as="targetPoint" />
          </mxGeometry>
        </mxCell>
        <mxCell id="gcZu40GBeY7oq4u_h3x9-53" value="交易风控" style="edgeLabel;html=1;align=center;verticalAlign=middle;resizable=0;points=[];" vertex="1" connectable="0" parent="gcZu40GBeY7oq4u_h3x9-52">
          <mxGeometry x="0.0292" y="-3" relative="1" as="geometry">
            <mxPoint y="-3" as="offset" />
          </mxGeometry>
        </mxCell>
        <mxCell id="gcZu40GBeY7oq4u_h3x9-54" value="" style="endArrow=block;html=1;rounded=0;strokeWidth=4;endFill=1;" edge="1" parent="1">
          <mxGeometry width="50" height="50" relative="1" as="geometry">
            <mxPoint x="170" y="860" as="sourcePoint" />
            <mxPoint x="220" y="860" as="targetPoint" />
          </mxGeometry>
        </mxCell>
        <mxCell id="gcZu40GBeY7oq4u_h3x9-55" value="放款" style="text;html=1;align=center;verticalAlign=middle;resizable=0;points=[];autosize=1;strokeColor=none;fillColor=none;" vertex="1" parent="1">
          <mxGeometry x="115" y="840" width="50" height="30" as="geometry" />
        </mxCell>
        <mxCell id="gcZu40GBeY7oq4u_h3x9-56" value="" style="endArrow=block;html=1;rounded=0;strokeWidth=2;endFill=1;" edge="1" parent="1" target="gcZu40GBeY7oq4u_h3x9-27">
          <mxGeometry width="50" height="50" relative="1" as="geometry">
            <mxPoint x="265" y="860" as="sourcePoint" />
            <mxPoint x="805" y="860" as="targetPoint" />
          </mxGeometry>
        </mxCell>
        <mxCell id="gcZu40GBeY7oq4u_h3x9-57" value="借款申请" style="edgeLabel;html=1;align=center;verticalAlign=middle;resizable=0;points=[];" vertex="1" connectable="0" parent="gcZu40GBeY7oq4u_h3x9-56">
          <mxGeometry x="-0.3764" relative="1" as="geometry">
            <mxPoint x="17" as="offset" />
          </mxGeometry>
        </mxCell>
        <mxCell id="gcZu40GBeY7oq4u_h3x9-58" value="" style="endArrow=block;html=1;rounded=0;strokeWidth=2;endFill=1;" edge="1" parent="1" source="gcZu40GBeY7oq4u_h3x9-27" target="gcZu40GBeY7oq4u_h3x9-33">
          <mxGeometry width="50" height="50" relative="1" as="geometry">
            <mxPoint x="1012" y="930" as="sourcePoint" />
            <mxPoint x="1122" y="930" as="targetPoint" />
            <Array as="points">
              <mxPoint x="1102" y="930" />
            </Array>
          </mxGeometry>
        </mxCell>
        <mxCell id="gcZu40GBeY7oq4u_h3x9-59" value="匹配请求" style="edgeLabel;html=1;align=center;verticalAlign=middle;resizable=0;points=[];" vertex="1" connectable="0" parent="gcZu40GBeY7oq4u_h3x9-58">
          <mxGeometry x="0.0292" y="-3" relative="1" as="geometry">
            <mxPoint y="-3" as="offset" />
          </mxGeometry>
        </mxCell>
        <mxCell id="gcZu40GBeY7oq4u_h3x9-60" value="&lt;font style=&quot;font-size: 23px;&quot;&gt;小赢普惠&lt;/font&gt;" style="text;html=1;align=center;verticalAlign=middle;resizable=0;points=[];autosize=1;strokeColor=none;fillColor=none;" vertex="1" parent="1">
          <mxGeometry x="550" y="23" width="120" height="40" as="geometry" />
        </mxCell>
        <mxCell id="gcZu40GBeY7oq4u_h3x9-61" value="&lt;font style=&quot;font-size: 21px;&quot;&gt;小赢小贷&lt;/font&gt;" style="text;html=1;align=center;verticalAlign=middle;resizable=0;points=[];autosize=1;strokeColor=none;fillColor=none;" vertex="1" parent="1">
          <mxGeometry x="1810" y="40" width="110" height="40" as="geometry" />
        </mxCell>
        <mxCell id="gcZu40GBeY7oq4u_h3x9-62" value="小贷前置服务" style="shape=umlLifeline;perimeter=lifelinePerimeter;whiteSpace=wrap;html=1;container=1;dropTarget=0;collapsible=0;recursiveResize=0;outlineConnect=0;portConstraint=eastwest;newEdgeStyle={&quot;curved&quot;:0,&quot;rounded&quot;:0};strokeWidth=2;" vertex="1" parent="1">
          <mxGeometry x="650" y="100" width="110" height="1350" as="geometry" />
        </mxCell>
        <mxCell id="gcZu40GBeY7oq4u_h3x9-63" value="" style="html=1;points=[[0,0,0,0,5],[0,1,0,0,-5],[1,0,0,0,5],[1,1,0,0,-5]];perimeter=orthogonalPerimeter;outlineConnect=0;targetShapes=umlLifeline;portConstraint=eastwest;newEdgeStyle={&quot;curved&quot;:0,&quot;rounded&quot;:0};" vertex="1" parent="gcZu40GBeY7oq4u_h3x9-62">
          <mxGeometry x="45" y="80" width="20" height="230" as="geometry" />
        </mxCell>
        <mxCell id="gcZu40GBeY7oq4u_h3x9-64" value="" style="html=1;points=[[0,0,0,0,5],[0,1,0,0,-5],[1,0,0,0,5],[1,1,0,0,-5]];perimeter=orthogonalPerimeter;outlineConnect=0;targetShapes=umlLifeline;portConstraint=eastwest;newEdgeStyle={&quot;curved&quot;:0,&quot;rounded&quot;:0};" vertex="1" parent="gcZu40GBeY7oq4u_h3x9-62">
          <mxGeometry x="45" y="450" width="20" height="180" as="geometry" />
        </mxCell>
        <mxCell id="gcZu40GBeY7oq4u_h3x9-65" value="" style="html=1;points=[[0,0,0,0,5],[0,1,0,0,-5],[1,0,0,0,5],[1,1,0,0,-5]];perimeter=orthogonalPerimeter;outlineConnect=0;targetShapes=umlLifeline;portConstraint=eastwest;newEdgeStyle={&quot;curved&quot;:0,&quot;rounded&quot;:0};" vertex="1" parent="gcZu40GBeY7oq4u_h3x9-62">
          <mxGeometry x="45" y="1030" width="20" height="230" as="geometry" />
        </mxCell>
        <mxCell id="gcZu40GBeY7oq4u_h3x9-66" value="" style="endArrow=block;html=1;rounded=0;strokeWidth=2;endFill=1;strokeColor=#FF3333;" edge="1" parent="1" source="gcZu40GBeY7oq4u_h3x9-7" target="gcZu40GBeY7oq4u_h3x9-63">
          <mxGeometry width="50" height="50" relative="1" as="geometry">
            <mxPoint x="550" y="320" as="sourcePoint" />
            <mxPoint x="670" y="320" as="targetPoint" />
            <Array as="points">
              <mxPoint x="635" y="320" />
            </Array>
          </mxGeometry>
        </mxCell>
        <mxCell id="gcZu40GBeY7oq4u_h3x9-67" value="&lt;font color=&quot;#ff3333&quot;&gt;发起查征&lt;br&gt;轮询获取结果&lt;br&gt;&lt;/font&gt;" style="edgeLabel;html=1;align=center;verticalAlign=middle;resizable=0;points=[];" vertex="1" connectable="0" parent="gcZu40GBeY7oq4u_h3x9-66">
          <mxGeometry x="0.0292" y="-3" relative="1" as="geometry">
            <mxPoint y="-3" as="offset" />
          </mxGeometry>
        </mxCell>
        <mxCell id="gcZu40GBeY7oq4u_h3x9-68" value="" style="endArrow=block;html=1;rounded=0;strokeWidth=2;endFill=1;strokeColor=#FF3333;" edge="1" parent="1" source="gcZu40GBeY7oq4u_h3x9-63" target="gcZu40GBeY7oq4u_h3x9-23">
          <mxGeometry width="50" height="50" relative="1" as="geometry">
            <mxPoint x="720" y="320" as="sourcePoint" />
            <mxPoint x="830" y="320" as="targetPoint" />
            <Array as="points">
              <mxPoint x="810" y="320" />
            </Array>
          </mxGeometry>
        </mxCell>
        <mxCell id="gcZu40GBeY7oq4u_h3x9-69" value="&lt;font color=&quot;#ff3333&quot;&gt;发起查征&lt;br&gt;&lt;/font&gt;" style="edgeLabel;html=1;align=center;verticalAlign=middle;resizable=0;points=[];" vertex="1" connectable="0" parent="gcZu40GBeY7oq4u_h3x9-68">
          <mxGeometry x="0.0292" y="-3" relative="1" as="geometry">
            <mxPoint y="-3" as="offset" />
          </mxGeometry>
        </mxCell>
        <mxCell id="gcZu40GBeY7oq4u_h3x9-70" value="" style="endArrow=block;html=1;rounded=0;strokeWidth=2;endFill=1;strokeColor=#FF3333;" edge="1" parent="1" source="gcZu40GBeY7oq4u_h3x9-23" target="gcZu40GBeY7oq4u_h3x9-63">
          <mxGeometry width="50" height="50" relative="1" as="geometry">
            <mxPoint x="842" y="350" as="sourcePoint" />
            <mxPoint x="720" y="350" as="targetPoint" />
            <Array as="points">
              <mxPoint x="805" y="350" />
            </Array>
          </mxGeometry>
        </mxCell>
        <mxCell id="gcZu40GBeY7oq4u_h3x9-71" value="&lt;font color=&quot;#ff3333&quot;&gt;结果回调&lt;br&gt;前置服务落地&lt;br&gt;&lt;/font&gt;" style="edgeLabel;html=1;align=center;verticalAlign=middle;resizable=0;points=[];" vertex="1" connectable="0" parent="gcZu40GBeY7oq4u_h3x9-70">
          <mxGeometry x="0.0292" y="-3" relative="1" as="geometry">
            <mxPoint y="-3" as="offset" />
          </mxGeometry>
        </mxCell>
        <mxCell id="gcZu40GBeY7oq4u_h3x9-72" value="" style="endArrow=block;html=1;rounded=0;strokeWidth=2;endFill=1;strokeColor=#FF3333;" edge="1" parent="1">
          <mxGeometry width="50" height="50" relative="1" as="geometry">
            <mxPoint x="545" y="660" as="sourcePoint" />
            <mxPoint x="695" y="660" as="targetPoint" />
            <Array as="points">
              <mxPoint x="635" y="660" />
            </Array>
          </mxGeometry>
        </mxCell>
        <mxCell id="gcZu40GBeY7oq4u_h3x9-73" value="&lt;font color=&quot;#ff3333&quot;&gt;发起查征&lt;br&gt;轮询获取结果&lt;br&gt;&lt;/font&gt;" style="edgeLabel;html=1;align=center;verticalAlign=middle;resizable=0;points=[];" vertex="1" connectable="0" parent="gcZu40GBeY7oq4u_h3x9-72">
          <mxGeometry x="0.0292" y="-3" relative="1" as="geometry">
            <mxPoint y="-3" as="offset" />
          </mxGeometry>
        </mxCell>
        <mxCell id="gcZu40GBeY7oq4u_h3x9-74" value="" style="endArrow=block;html=1;rounded=0;strokeWidth=2;endFill=1;strokeColor=#FF3333;" edge="1" parent="1">
          <mxGeometry width="50" height="50" relative="1" as="geometry">
            <mxPoint x="715" y="660" as="sourcePoint" />
            <mxPoint x="847" y="660" as="targetPoint" />
            <Array as="points">
              <mxPoint x="810" y="660" />
            </Array>
          </mxGeometry>
        </mxCell>
        <mxCell id="gcZu40GBeY7oq4u_h3x9-75" value="&lt;font color=&quot;#ff3333&quot;&gt;发起查征&lt;br&gt;&lt;/font&gt;" style="edgeLabel;html=1;align=center;verticalAlign=middle;resizable=0;points=[];" vertex="1" connectable="0" parent="gcZu40GBeY7oq4u_h3x9-74">
          <mxGeometry x="0.0292" y="-3" relative="1" as="geometry">
            <mxPoint y="-3" as="offset" />
          </mxGeometry>
        </mxCell>
        <mxCell id="gcZu40GBeY7oq4u_h3x9-76" value="" style="endArrow=block;html=1;rounded=0;strokeWidth=2;endFill=1;strokeColor=#FF3333;" edge="1" parent="1">
          <mxGeometry width="50" height="50" relative="1" as="geometry">
            <mxPoint x="847" y="690" as="sourcePoint" />
            <mxPoint x="715" y="690" as="targetPoint" />
            <Array as="points">
              <mxPoint x="805" y="690" />
            </Array>
          </mxGeometry>
        </mxCell>
        <mxCell id="gcZu40GBeY7oq4u_h3x9-77" value="&lt;font color=&quot;#ff3333&quot;&gt;结果回调&lt;br&gt;前置服务落地&lt;br&gt;&lt;/font&gt;" style="edgeLabel;html=1;align=center;verticalAlign=middle;resizable=0;points=[];" vertex="1" connectable="0" parent="gcZu40GBeY7oq4u_h3x9-76">
          <mxGeometry x="0.0292" y="-3" relative="1" as="geometry">
            <mxPoint y="-3" as="offset" />
          </mxGeometry>
        </mxCell>
        <mxCell id="gcZu40GBeY7oq4u_h3x9-78" value="小贷接入(张庚)" style="shape=umlLifeline;perimeter=lifelinePerimeter;whiteSpace=wrap;html=1;container=1;dropTarget=0;collapsible=0;recursiveResize=0;outlineConnect=0;portConstraint=eastwest;newEdgeStyle={&quot;curved&quot;:0,&quot;rounded&quot;:0};strokeWidth=2;" vertex="1" parent="1">
          <mxGeometry x="1310" y="100" width="110" height="1420" as="geometry" />
        </mxCell>
        <mxCell id="gcZu40GBeY7oq4u_h3x9-79" value="" style="html=1;points=[[0,0,0,0,5],[0,1,0,0,-5],[1,0,0,0,5],[1,1,0,0,-5]];perimeter=orthogonalPerimeter;outlineConnect=0;targetShapes=umlLifeline;portConstraint=eastwest;newEdgeStyle={&quot;curved&quot;:0,&quot;rounded&quot;:0};" vertex="1" parent="gcZu40GBeY7oq4u_h3x9-78">
          <mxGeometry x="45" y="80" width="20" height="230" as="geometry" />
        </mxCell>
        <mxCell id="gcZu40GBeY7oq4u_h3x9-80" value="" style="html=1;points=[[0,0,0,0,5],[0,1,0,0,-5],[1,0,0,0,5],[1,1,0,0,-5]];perimeter=orthogonalPerimeter;outlineConnect=0;targetShapes=umlLifeline;portConstraint=eastwest;newEdgeStyle={&quot;curved&quot;:0,&quot;rounded&quot;:0};" vertex="1" parent="gcZu40GBeY7oq4u_h3x9-78">
          <mxGeometry x="45" y="450" width="20" height="180" as="geometry" />
        </mxCell>
        <mxCell id="gcZu40GBeY7oq4u_h3x9-81" value="" style="html=1;points=[[0,0,0,0,5],[0,1,0,0,-5],[1,0,0,0,5],[1,1,0,0,-5]];perimeter=orthogonalPerimeter;outlineConnect=0;targetShapes=umlLifeline;portConstraint=eastwest;newEdgeStyle={&quot;curved&quot;:0,&quot;rounded&quot;:0};" vertex="1" parent="gcZu40GBeY7oq4u_h3x9-78">
          <mxGeometry x="45" y="1110" width="20" height="80" as="geometry" />
        </mxCell>
        <mxCell id="gcZu40GBeY7oq4u_h3x9-82" value="" style="html=1;points=[[0,0,0,0,5],[0,1,0,0,-5],[1,0,0,0,5],[1,1,0,0,-5]];perimeter=orthogonalPerimeter;outlineConnect=0;targetShapes=umlLifeline;portConstraint=eastwest;newEdgeStyle={&quot;curved&quot;:0,&quot;rounded&quot;:0};" vertex="1" parent="gcZu40GBeY7oq4u_h3x9-78">
          <mxGeometry x="45" y="930" width="20" height="60" as="geometry" />
        </mxCell>
        <mxCell id="gcZu40GBeY7oq4u_h3x9-83" value="" style="html=1;points=[[0,0,0,0,5],[0,1,0,0,-5],[1,0,0,0,5],[1,1,0,0,-5]];perimeter=orthogonalPerimeter;outlineConnect=0;targetShapes=umlLifeline;portConstraint=eastwest;newEdgeStyle={&quot;curved&quot;:0,&quot;rounded&quot;:0};" vertex="1" parent="gcZu40GBeY7oq4u_h3x9-78">
          <mxGeometry x="45" y="1210" width="20" height="70" as="geometry" />
        </mxCell>
        <mxCell id="gcZu40GBeY7oq4u_h3x9-84" value="" style="endArrow=block;html=1;rounded=0;strokeWidth=2;endFill=1;strokeColor=#000000;fillColor=#000000;" edge="1" parent="1" source="gcZu40GBeY7oq4u_h3x9-23" target="gcZu40GBeY7oq4u_h3x9-79">
          <mxGeometry width="50" height="50" relative="1" as="geometry">
            <mxPoint x="870" y="320" as="sourcePoint" />
            <mxPoint x="1002" y="320" as="targetPoint" />
            <Array as="points">
              <mxPoint x="965" y="320" />
            </Array>
          </mxGeometry>
        </mxCell>
        <mxCell id="gcZu40GBeY7oq4u_h3x9-85" value="发起查征" style="edgeLabel;html=1;align=center;verticalAlign=middle;resizable=0;points=[];" vertex="1" connectable="0" parent="gcZu40GBeY7oq4u_h3x9-84">
          <mxGeometry x="0.0292" y="-3" relative="1" as="geometry">
            <mxPoint y="-3" as="offset" />
          </mxGeometry>
        </mxCell>
        <mxCell id="gcZu40GBeY7oq4u_h3x9-86" value="" style="endArrow=block;html=1;rounded=0;strokeWidth=2;endFill=1;strokeColor=#000000;" edge="1" parent="1" source="gcZu40GBeY7oq4u_h3x9-79" target="gcZu40GBeY7oq4u_h3x9-23">
          <mxGeometry width="50" height="50" relative="1" as="geometry">
            <mxPoint x="1350" y="340" as="sourcePoint" />
            <mxPoint x="870" y="340" as="targetPoint" />
            <Array as="points">
              <mxPoint x="968" y="340" />
            </Array>
          </mxGeometry>
        </mxCell>
        <mxCell id="gcZu40GBeY7oq4u_h3x9-87" value="结果回调" style="edgeLabel;html=1;align=center;verticalAlign=middle;resizable=0;points=[];" vertex="1" connectable="0" parent="gcZu40GBeY7oq4u_h3x9-86">
          <mxGeometry x="0.0292" y="-3" relative="1" as="geometry">
            <mxPoint y="-3" as="offset" />
          </mxGeometry>
        </mxCell>
        <mxCell id="gcZu40GBeY7oq4u_h3x9-88" value="小贷支付" style="shape=umlLifeline;perimeter=lifelinePerimeter;whiteSpace=wrap;html=1;container=1;dropTarget=0;collapsible=0;recursiveResize=0;outlineConnect=0;portConstraint=eastwest;newEdgeStyle={&quot;curved&quot;:0,&quot;rounded&quot;:0};strokeWidth=2;" vertex="1" parent="1">
          <mxGeometry x="1460" y="100" width="110" height="1420" as="geometry" />
        </mxCell>
        <mxCell id="gcZu40GBeY7oq4u_h3x9-89" value="" style="html=1;points=[[0,0,0,0,5],[0,1,0,0,-5],[1,0,0,0,5],[1,1,0,0,-5]];perimeter=orthogonalPerimeter;outlineConnect=0;targetShapes=umlLifeline;portConstraint=eastwest;newEdgeStyle={&quot;curved&quot;:0,&quot;rounded&quot;:0};" vertex="1" parent="gcZu40GBeY7oq4u_h3x9-88">
          <mxGeometry x="45" y="930" width="20" height="60" as="geometry" />
        </mxCell>
        <mxCell id="gcZu40GBeY7oq4u_h3x9-90" value="" style="html=1;points=[[0,0,0,0,5],[0,1,0,0,-5],[1,0,0,0,5],[1,1,0,0,-5]];perimeter=orthogonalPerimeter;outlineConnect=0;targetShapes=umlLifeline;portConstraint=eastwest;newEdgeStyle={&quot;curved&quot;:0,&quot;rounded&quot;:0};" vertex="1" parent="gcZu40GBeY7oq4u_h3x9-88">
          <mxGeometry x="45" y="1210" width="20" height="70" as="geometry" />
        </mxCell>
        <mxCell id="gcZu40GBeY7oq4u_h3x9-91" value="" style="endArrow=classic;html=1;rounded=0;strokeWidth=2;" edge="1" parent="gcZu40GBeY7oq4u_h3x9-88" source="gcZu40GBeY7oq4u_h3x9-90" target="gcZu40GBeY7oq4u_h3x9-90">
          <mxGeometry width="50" height="50" relative="1" as="geometry">
            <mxPoint x="72" y="1230" as="sourcePoint" />
            <mxPoint x="72" y="1260" as="targetPoint" />
            <Array as="points">
              <mxPoint x="95" y="1230" />
              <mxPoint x="100" y="1240" />
              <mxPoint x="100" y="1260" />
            </Array>
          </mxGeometry>
        </mxCell>
        <mxCell id="gcZu40GBeY7oq4u_h3x9-92" value="小贷订单管理(隆涛)" style="shape=umlLifeline;perimeter=lifelinePerimeter;whiteSpace=wrap;html=1;container=1;dropTarget=0;collapsible=0;recursiveResize=0;outlineConnect=0;portConstraint=eastwest;newEdgeStyle={&quot;curved&quot;:0,&quot;rounded&quot;:0};strokeWidth=2;" vertex="1" parent="1">
          <mxGeometry x="1610" y="100" width="110" height="1440" as="geometry" />
        </mxCell>
        <mxCell id="gcZu40GBeY7oq4u_h3x9-93" value="" style="html=1;points=[[0,0,0,0,5],[0,1,0,0,-5],[1,0,0,0,5],[1,1,0,0,-5]];perimeter=orthogonalPerimeter;outlineConnect=0;targetShapes=umlLifeline;portConstraint=eastwest;newEdgeStyle={&quot;curved&quot;:0,&quot;rounded&quot;:0};" vertex="1" parent="gcZu40GBeY7oq4u_h3x9-92">
          <mxGeometry x="45" y="80" width="20" height="230" as="geometry" />
        </mxCell>
        <mxCell id="gcZu40GBeY7oq4u_h3x9-94" value="" style="html=1;points=[[0,0,0,0,5],[0,1,0,0,-5],[1,0,0,0,5],[1,1,0,0,-5]];perimeter=orthogonalPerimeter;outlineConnect=0;targetShapes=umlLifeline;portConstraint=eastwest;newEdgeStyle={&quot;curved&quot;:0,&quot;rounded&quot;:0};" vertex="1" parent="gcZu40GBeY7oq4u_h3x9-92">
          <mxGeometry x="45" y="450" width="20" height="180" as="geometry" />
        </mxCell>
        <mxCell id="gcZu40GBeY7oq4u_h3x9-95" value="小贷风控(隆涛)" style="shape=umlLifeline;perimeter=lifelinePerimeter;whiteSpace=wrap;html=1;container=1;dropTarget=0;collapsible=0;recursiveResize=0;outlineConnect=0;portConstraint=eastwest;newEdgeStyle={&quot;curved&quot;:0,&quot;rounded&quot;:0};strokeWidth=2;" vertex="1" parent="1">
          <mxGeometry x="1765" y="100" width="110" height="1410" as="geometry" />
        </mxCell>
        <mxCell id="gcZu40GBeY7oq4u_h3x9-96" value="" style="html=1;points=[[0,0,0,0,5],[0,1,0,0,-5],[1,0,0,0,5],[1,1,0,0,-5]];perimeter=orthogonalPerimeter;outlineConnect=0;targetShapes=umlLifeline;portConstraint=eastwest;newEdgeStyle={&quot;curved&quot;:0,&quot;rounded&quot;:0};" vertex="1" parent="gcZu40GBeY7oq4u_h3x9-95">
          <mxGeometry x="45" y="80" width="20" height="230" as="geometry" />
        </mxCell>
        <mxCell id="gcZu40GBeY7oq4u_h3x9-97" value="" style="html=1;points=[[0,0,0,0,5],[0,1,0,0,-5],[1,0,0,0,5],[1,1,0,0,-5]];perimeter=orthogonalPerimeter;outlineConnect=0;targetShapes=umlLifeline;portConstraint=eastwest;newEdgeStyle={&quot;curved&quot;:0,&quot;rounded&quot;:0};" vertex="1" parent="gcZu40GBeY7oq4u_h3x9-95">
          <mxGeometry x="45" y="450" width="20" height="180" as="geometry" />
        </mxCell>
        <mxCell id="gcZu40GBeY7oq4u_h3x9-98" value="" style="html=1;points=[[0,0,0,0,5],[0,1,0,0,-5],[1,0,0,0,5],[1,1,0,0,-5]];perimeter=orthogonalPerimeter;outlineConnect=0;targetShapes=umlLifeline;portConstraint=eastwest;newEdgeStyle={&quot;curved&quot;:0,&quot;rounded&quot;:0};" vertex="1" parent="gcZu40GBeY7oq4u_h3x9-95">
          <mxGeometry x="45" y="1080" width="20" height="180" as="geometry" />
        </mxCell>
        <mxCell id="gcZu40GBeY7oq4u_h3x9-99" value="央行查征前置(朝南)" style="shape=umlLifeline;perimeter=lifelinePerimeter;whiteSpace=wrap;html=1;container=1;dropTarget=0;collapsible=0;recursiveResize=0;outlineConnect=0;portConstraint=eastwest;newEdgeStyle={&quot;curved&quot;:0,&quot;rounded&quot;:0};strokeWidth=2;" vertex="1" parent="1">
          <mxGeometry x="1920" y="100" width="130" height="1420" as="geometry" />
        </mxCell>
        <mxCell id="gcZu40GBeY7oq4u_h3x9-100" value="" style="html=1;points=[[0,0,0,0,5],[0,1,0,0,-5],[1,0,0,0,5],[1,1,0,0,-5]];perimeter=orthogonalPerimeter;outlineConnect=0;targetShapes=umlLifeline;portConstraint=eastwest;newEdgeStyle={&quot;curved&quot;:0,&quot;rounded&quot;:0};" vertex="1" parent="gcZu40GBeY7oq4u_h3x9-99">
          <mxGeometry x="55" y="80" width="20" height="230" as="geometry" />
        </mxCell>
        <mxCell id="gcZu40GBeY7oq4u_h3x9-101" value="" style="html=1;points=[[0,0,0,0,5],[0,1,0,0,-5],[1,0,0,0,5],[1,1,0,0,-5]];perimeter=orthogonalPerimeter;outlineConnect=0;targetShapes=umlLifeline;portConstraint=eastwest;newEdgeStyle={&quot;curved&quot;:0,&quot;rounded&quot;:0};" vertex="1" parent="gcZu40GBeY7oq4u_h3x9-99">
          <mxGeometry x="55" y="450" width="20" height="180" as="geometry" />
        </mxCell>
        <mxCell id="gcZu40GBeY7oq4u_h3x9-102" value="" style="html=1;points=[[0,0,0,0,5],[0,1,0,0,-5],[1,0,0,0,5],[1,1,0,0,-5]];perimeter=orthogonalPerimeter;outlineConnect=0;targetShapes=umlLifeline;portConstraint=eastwest;newEdgeStyle={&quot;curved&quot;:0,&quot;rounded&quot;:0};" vertex="1" parent="gcZu40GBeY7oq4u_h3x9-99">
          <mxGeometry x="55" y="1080" width="20" height="180" as="geometry" />
        </mxCell>
        <mxCell id="gcZu40GBeY7oq4u_h3x9-103" style="edgeStyle=orthogonalEdgeStyle;rounded=0;orthogonalLoop=1;jettySize=auto;html=1;curved=0;strokeWidth=2;" edge="1" parent="1">
          <mxGeometry relative="1" as="geometry">
            <mxPoint x="1675" y="320" as="sourcePoint" />
            <mxPoint x="1810" y="320" as="targetPoint" />
          </mxGeometry>
        </mxCell>
        <mxCell id="gcZu40GBeY7oq4u_h3x9-104" value="小贷授信风控" style="edgeLabel;html=1;align=center;verticalAlign=middle;resizable=0;points=[];" vertex="1" connectable="0" parent="gcZu40GBeY7oq4u_h3x9-103">
          <mxGeometry x="-0.178" relative="1" as="geometry">
            <mxPoint as="offset" />
          </mxGeometry>
        </mxCell>
        <mxCell id="gcZu40GBeY7oq4u_h3x9-105" style="edgeStyle=orthogonalEdgeStyle;rounded=0;orthogonalLoop=1;jettySize=auto;html=1;curved=0;strokeWidth=2;" edge="1" parent="1">
          <mxGeometry relative="1" as="geometry">
            <mxPoint x="1810" y="340" as="sourcePoint" />
            <mxPoint x="1675.0000000000002" y="340" as="targetPoint" />
            <Array as="points" />
          </mxGeometry>
        </mxCell>
        <mxCell id="gcZu40GBeY7oq4u_h3x9-106" value="授信结果" style="edgeLabel;html=1;align=center;verticalAlign=middle;resizable=0;points=[];" vertex="1" connectable="0" parent="gcZu40GBeY7oq4u_h3x9-105">
          <mxGeometry x="0.2067" y="-1" relative="1" as="geometry">
            <mxPoint as="offset" />
          </mxGeometry>
        </mxCell>
        <mxCell id="gcZu40GBeY7oq4u_h3x9-107" value="" style="edgeStyle=orthogonalEdgeStyle;rounded=0;orthogonalLoop=1;jettySize=auto;html=1;curved=0;strokeWidth=2;" edge="1" parent="1" target="gcZu40GBeY7oq4u_h3x9-100">
          <mxGeometry relative="1" as="geometry">
            <mxPoint x="1830" y="320" as="sourcePoint" />
            <mxPoint x="1965" y="320" as="targetPoint" />
            <Array as="points">
              <mxPoint x="1940" y="320" />
              <mxPoint x="1940" y="320" />
            </Array>
          </mxGeometry>
        </mxCell>
        <mxCell id="gcZu40GBeY7oq4u_h3x9-108" value="查征" style="edgeLabel;html=1;align=center;verticalAlign=middle;resizable=0;points=[];" vertex="1" connectable="0" parent="gcZu40GBeY7oq4u_h3x9-107">
          <mxGeometry x="-0.178" relative="1" as="geometry">
            <mxPoint as="offset" />
          </mxGeometry>
        </mxCell>
        <mxCell id="gcZu40GBeY7oq4u_h3x9-109" style="edgeStyle=orthogonalEdgeStyle;rounded=0;orthogonalLoop=1;jettySize=auto;html=1;curved=0;strokeWidth=2;" edge="1" parent="1" source="gcZu40GBeY7oq4u_h3x9-100">
          <mxGeometry relative="1" as="geometry">
            <mxPoint x="1965" y="339.71" as="sourcePoint" />
            <mxPoint x="1830" y="339.71" as="targetPoint" />
            <Array as="points">
              <mxPoint x="1950" y="340" />
              <mxPoint x="1950" y="340" />
            </Array>
          </mxGeometry>
        </mxCell>
        <mxCell id="gcZu40GBeY7oq4u_h3x9-110" value="查征结果&lt;div&gt;轮询/回调&lt;/div&gt;" style="edgeLabel;html=1;align=center;verticalAlign=middle;resizable=0;points=[];" vertex="1" connectable="0" parent="gcZu40GBeY7oq4u_h3x9-109">
          <mxGeometry x="-0.178" relative="1" as="geometry">
            <mxPoint as="offset" />
          </mxGeometry>
        </mxCell>
        <mxCell id="gcZu40GBeY7oq4u_h3x9-111" value="征信报文(赫贺)" style="shape=umlLifeline;perimeter=lifelinePerimeter;whiteSpace=wrap;html=1;container=1;dropTarget=0;collapsible=0;recursiveResize=0;outlineConnect=0;portConstraint=eastwest;newEdgeStyle={&quot;curved&quot;:0,&quot;rounded&quot;:0};strokeWidth=2;" vertex="1" parent="1">
          <mxGeometry x="2080" y="100" width="110" height="1440" as="geometry" />
        </mxCell>
        <mxCell id="gcZu40GBeY7oq4u_h3x9-112" value="" style="html=1;points=[[0,0,0,0,5],[0,1,0,0,-5],[1,0,0,0,5],[1,1,0,0,-5]];perimeter=orthogonalPerimeter;outlineConnect=0;targetShapes=umlLifeline;portConstraint=eastwest;newEdgeStyle={&quot;curved&quot;:0,&quot;rounded&quot;:0};" vertex="1" parent="gcZu40GBeY7oq4u_h3x9-111">
          <mxGeometry x="45" y="80" width="20" height="120" as="geometry" />
        </mxCell>
        <mxCell id="gcZu40GBeY7oq4u_h3x9-113" value="" style="html=1;points=[[0,0,0,0,5],[0,1,0,0,-5],[1,0,0,0,5],[1,1,0,0,-5]];perimeter=orthogonalPerimeter;outlineConnect=0;targetShapes=umlLifeline;portConstraint=eastwest;newEdgeStyle={&quot;curved&quot;:0,&quot;rounded&quot;:0};" vertex="1" parent="gcZu40GBeY7oq4u_h3x9-111">
          <mxGeometry x="45" y="450" width="20" height="110" as="geometry" />
        </mxCell>
        <mxCell id="gcZu40GBeY7oq4u_h3x9-114" value="" style="html=1;points=[[0,0,0,0,5],[0,1,0,0,-5],[1,0,0,0,5],[1,1,0,0,-5]];perimeter=orthogonalPerimeter;outlineConnect=0;targetShapes=umlLifeline;portConstraint=eastwest;newEdgeStyle={&quot;curved&quot;:0,&quot;rounded&quot;:0};" vertex="1" parent="gcZu40GBeY7oq4u_h3x9-111">
          <mxGeometry x="45" y="1080" width="20" height="60" as="geometry" />
        </mxCell>
        <mxCell id="gcZu40GBeY7oq4u_h3x9-115" value="don落地服务(隆涛)" style="shape=umlLifeline;perimeter=lifelinePerimeter;whiteSpace=wrap;html=1;container=1;dropTarget=0;collapsible=0;recursiveResize=0;outlineConnect=0;portConstraint=eastwest;newEdgeStyle={&quot;curved&quot;:0,&quot;rounded&quot;:0};strokeWidth=2;" vertex="1" parent="1">
          <mxGeometry x="2240" y="100" width="110" height="1450" as="geometry" />
        </mxCell>
        <mxCell id="gcZu40GBeY7oq4u_h3x9-116" value="" style="html=1;points=[[0,0,0,0,5],[0,1,0,0,-5],[1,0,0,0,5],[1,1,0,0,-5]];perimeter=orthogonalPerimeter;outlineConnect=0;targetShapes=umlLifeline;portConstraint=eastwest;newEdgeStyle={&quot;curved&quot;:0,&quot;rounded&quot;:0};" vertex="1" parent="gcZu40GBeY7oq4u_h3x9-115">
          <mxGeometry x="45" y="80" width="20" height="230" as="geometry" />
        </mxCell>
        <mxCell id="gcZu40GBeY7oq4u_h3x9-117" value="" style="html=1;points=[[0,0,0,0,5],[0,1,0,0,-5],[1,0,0,0,5],[1,1,0,0,-5]];perimeter=orthogonalPerimeter;outlineConnect=0;targetShapes=umlLifeline;portConstraint=eastwest;newEdgeStyle={&quot;curved&quot;:0,&quot;rounded&quot;:0};" vertex="1" parent="gcZu40GBeY7oq4u_h3x9-115">
          <mxGeometry x="45" y="450" width="20" height="180" as="geometry" />
        </mxCell>
        <mxCell id="gcZu40GBeY7oq4u_h3x9-118" value="" style="html=1;points=[[0,0,0,0,5],[0,1,0,0,-5],[1,0,0,0,5],[1,1,0,0,-5]];perimeter=orthogonalPerimeter;outlineConnect=0;targetShapes=umlLifeline;portConstraint=eastwest;newEdgeStyle={&quot;curved&quot;:0,&quot;rounded&quot;:0};" vertex="1" parent="gcZu40GBeY7oq4u_h3x9-115">
          <mxGeometry x="45" y="1080" width="20" height="180" as="geometry" />
        </mxCell>
        <mxCell id="gcZu40GBeY7oq4u_h3x9-119" value="小贷白盒服务" style="shape=umlLifeline;perimeter=lifelinePerimeter;whiteSpace=wrap;html=1;container=1;dropTarget=0;collapsible=0;recursiveResize=0;outlineConnect=0;portConstraint=eastwest;newEdgeStyle={&quot;curved&quot;:0,&quot;rounded&quot;:0};strokeWidth=2;" vertex="1" parent="1">
          <mxGeometry x="2400" y="100" width="110" height="1450" as="geometry" />
        </mxCell>
        <mxCell id="gcZu40GBeY7oq4u_h3x9-120" value="" style="html=1;points=[[0,0,0,0,5],[0,1,0,0,-5],[1,0,0,0,5],[1,1,0,0,-5]];perimeter=orthogonalPerimeter;outlineConnect=0;targetShapes=umlLifeline;portConstraint=eastwest;newEdgeStyle={&quot;curved&quot;:0,&quot;rounded&quot;:0};" vertex="1" parent="gcZu40GBeY7oq4u_h3x9-119">
          <mxGeometry x="45" y="80" width="20" height="230" as="geometry" />
        </mxCell>
        <mxCell id="gcZu40GBeY7oq4u_h3x9-121" value="" style="html=1;points=[[0,0,0,0,5],[0,1,0,0,-5],[1,0,0,0,5],[1,1,0,0,-5]];perimeter=orthogonalPerimeter;outlineConnect=0;targetShapes=umlLifeline;portConstraint=eastwest;newEdgeStyle={&quot;curved&quot;:0,&quot;rounded&quot;:0};" vertex="1" parent="gcZu40GBeY7oq4u_h3x9-119">
          <mxGeometry x="45" y="450" width="20" height="180" as="geometry" />
        </mxCell>
        <mxCell id="gcZu40GBeY7oq4u_h3x9-122" value="" style="html=1;points=[[0,0,0,0,5],[0,1,0,0,-5],[1,0,0,0,5],[1,1,0,0,-5]];perimeter=orthogonalPerimeter;outlineConnect=0;targetShapes=umlLifeline;portConstraint=eastwest;newEdgeStyle={&quot;curved&quot;:0,&quot;rounded&quot;:0};" vertex="1" parent="gcZu40GBeY7oq4u_h3x9-119">
          <mxGeometry x="45" y="1080" width="20" height="120" as="geometry" />
        </mxCell>
        <mxCell id="gcZu40GBeY7oq4u_h3x9-123" style="edgeStyle=orthogonalEdgeStyle;rounded=0;orthogonalLoop=1;jettySize=auto;html=1;curved=0;strokeWidth=2;" edge="1" parent="1" source="gcZu40GBeY7oq4u_h3x9-112" target="gcZu40GBeY7oq4u_h3x9-100">
          <mxGeometry relative="1" as="geometry">
            <mxPoint x="2120" y="260" as="sourcePoint" />
            <mxPoint x="1990" y="260.0040816326531" as="targetPoint" />
            <Array as="points">
              <mxPoint x="2020" y="260" />
              <mxPoint x="2020" y="260" />
            </Array>
          </mxGeometry>
        </mxCell>
        <mxCell id="gcZu40GBeY7oq4u_h3x9-124" value="征信报文返回" style="edgeLabel;html=1;align=center;verticalAlign=middle;resizable=0;points=[];" vertex="1" connectable="0" parent="gcZu40GBeY7oq4u_h3x9-123">
          <mxGeometry x="-0.178" relative="1" as="geometry">
            <mxPoint as="offset" />
          </mxGeometry>
        </mxCell>
        <mxCell id="gcZu40GBeY7oq4u_h3x9-125" style="edgeStyle=orthogonalEdgeStyle;rounded=0;orthogonalLoop=1;jettySize=auto;html=1;curved=0;strokeWidth=2;" edge="1" parent="1" source="gcZu40GBeY7oq4u_h3x9-100" target="gcZu40GBeY7oq4u_h3x9-112">
          <mxGeometry relative="1" as="geometry">
            <mxPoint x="1990" y="240" as="sourcePoint" />
            <mxPoint x="2120" y="240" as="targetPoint" />
            <Array as="points">
              <mxPoint x="2030" y="245" />
              <mxPoint x="2030" y="245" />
            </Array>
          </mxGeometry>
        </mxCell>
        <mxCell id="gcZu40GBeY7oq4u_h3x9-126" value="获取征信报文" style="edgeLabel;html=1;align=center;verticalAlign=middle;resizable=0;points=[];" vertex="1" connectable="0" parent="gcZu40GBeY7oq4u_h3x9-125">
          <mxGeometry x="-0.178" relative="1" as="geometry">
            <mxPoint as="offset" />
          </mxGeometry>
        </mxCell>
        <mxCell id="gcZu40GBeY7oq4u_h3x9-127" style="edgeStyle=orthogonalEdgeStyle;rounded=0;orthogonalLoop=1;jettySize=auto;html=1;curved=0;strokeWidth=2;" edge="1" parent="1" source="gcZu40GBeY7oq4u_h3x9-100">
          <mxGeometry relative="1" as="geometry">
            <mxPoint x="2010" y="320" as="sourcePoint" />
            <mxPoint x="2285" y="320" as="targetPoint" />
            <Array as="points">
              <mxPoint x="2070" y="320" />
              <mxPoint x="2070" y="320" />
            </Array>
          </mxGeometry>
        </mxCell>
        <mxCell id="gcZu40GBeY7oq4u_h3x9-128" value="征信报文单号申请征信" style="edgeLabel;html=1;align=center;verticalAlign=middle;resizable=0;points=[];" vertex="1" connectable="0" parent="gcZu40GBeY7oq4u_h3x9-127">
          <mxGeometry x="-0.0457" y="1" relative="1" as="geometry">
            <mxPoint as="offset" />
          </mxGeometry>
        </mxCell>
        <mxCell id="gcZu40GBeY7oq4u_h3x9-129" style="edgeStyle=orthogonalEdgeStyle;rounded=0;orthogonalLoop=1;jettySize=auto;html=1;curved=0;strokeWidth=2;" edge="1" parent="1" target="gcZu40GBeY7oq4u_h3x9-100">
          <mxGeometry relative="1" as="geometry">
            <mxPoint x="2285" y="340" as="sourcePoint" />
            <mxPoint x="2000" y="340" as="targetPoint" />
            <Array as="points">
              <mxPoint x="2060" y="340" />
              <mxPoint x="2060" y="340" />
            </Array>
          </mxGeometry>
        </mxCell>
        <mxCell id="gcZu40GBeY7oq4u_h3x9-130" value="结果返回" style="edgeLabel;html=1;align=center;verticalAlign=middle;resizable=0;points=[];" vertex="1" connectable="0" parent="gcZu40GBeY7oq4u_h3x9-129">
          <mxGeometry x="0.1171" relative="1" as="geometry">
            <mxPoint as="offset" />
          </mxGeometry>
        </mxCell>
        <mxCell id="gcZu40GBeY7oq4u_h3x9-131" style="edgeStyle=orthogonalEdgeStyle;rounded=0;orthogonalLoop=1;jettySize=auto;html=1;curved=0;strokeWidth=2;" edge="1" parent="1" source="gcZu40GBeY7oq4u_h3x9-116" target="gcZu40GBeY7oq4u_h3x9-120">
          <mxGeometry relative="1" as="geometry">
            <Array as="points">
              <mxPoint x="2380" y="320" />
              <mxPoint x="2380" y="320" />
            </Array>
          </mxGeometry>
        </mxCell>
        <mxCell id="gcZu40GBeY7oq4u_h3x9-132" value="征信中间变量申请" style="edgeLabel;html=1;align=center;verticalAlign=middle;resizable=0;points=[];" vertex="1" connectable="0" parent="gcZu40GBeY7oq4u_h3x9-131">
          <mxGeometry x="-0.2457" relative="1" as="geometry">
            <mxPoint x="12" as="offset" />
          </mxGeometry>
        </mxCell>
        <mxCell id="gcZu40GBeY7oq4u_h3x9-133" style="edgeStyle=orthogonalEdgeStyle;rounded=0;orthogonalLoop=1;jettySize=auto;html=1;curved=0;strokeWidth=2;" edge="1" parent="1">
          <mxGeometry relative="1" as="geometry">
            <mxPoint x="2445" y="340" as="sourcePoint" />
            <mxPoint x="2305" y="340" as="targetPoint" />
            <Array as="points" />
          </mxGeometry>
        </mxCell>
        <mxCell id="gcZu40GBeY7oq4u_h3x9-134" value="中间变量返回" style="edgeLabel;html=1;align=center;verticalAlign=middle;resizable=0;points=[];" vertex="1" connectable="0" parent="gcZu40GBeY7oq4u_h3x9-133">
          <mxGeometry x="0.2457" y="-3" relative="1" as="geometry">
            <mxPoint x="12" y="3" as="offset" />
          </mxGeometry>
        </mxCell>
        <mxCell id="gcZu40GBeY7oq4u_h3x9-135" style="edgeStyle=orthogonalEdgeStyle;rounded=0;orthogonalLoop=1;jettySize=auto;html=1;curved=0;strokeWidth=2;" edge="1" parent="1">
          <mxGeometry relative="1" as="geometry">
            <mxPoint x="2305" y="370" as="sourcePoint" />
            <mxPoint x="2445" y="370" as="targetPoint" />
            <Array as="points">
              <mxPoint x="2380" y="370" />
              <mxPoint x="2380" y="370" />
            </Array>
          </mxGeometry>
        </mxCell>
        <mxCell id="gcZu40GBeY7oq4u_h3x9-136" value="征信规则计算" style="edgeLabel;html=1;align=center;verticalAlign=middle;resizable=0;points=[];" vertex="1" connectable="0" parent="gcZu40GBeY7oq4u_h3x9-135">
          <mxGeometry x="-0.1" relative="1" as="geometry">
            <mxPoint as="offset" />
          </mxGeometry>
        </mxCell>
        <mxCell id="gcZu40GBeY7oq4u_h3x9-137" style="edgeStyle=orthogonalEdgeStyle;rounded=0;orthogonalLoop=1;jettySize=auto;html=1;curved=0;strokeWidth=2;" edge="1" parent="1">
          <mxGeometry relative="1" as="geometry">
            <mxPoint x="2445" y="390" as="sourcePoint" />
            <mxPoint x="2305" y="390" as="targetPoint" />
            <Array as="points" />
          </mxGeometry>
        </mxCell>
        <mxCell id="gcZu40GBeY7oq4u_h3x9-138" value="规则结果返回" style="edgeLabel;html=1;align=center;verticalAlign=middle;resizable=0;points=[];" vertex="1" connectable="0" parent="gcZu40GBeY7oq4u_h3x9-137">
          <mxGeometry x="-0.1" relative="1" as="geometry">
            <mxPoint as="offset" />
          </mxGeometry>
        </mxCell>
        <mxCell id="gcZu40GBeY7oq4u_h3x9-139" value="" style="endArrow=block;html=1;rounded=0;strokeWidth=2;endFill=1;strokeColor=#000000;fillColor=#000000;" edge="1" parent="1" source="gcZu40GBeY7oq4u_h3x9-24" target="gcZu40GBeY7oq4u_h3x9-80">
          <mxGeometry width="50" height="50" relative="1" as="geometry">
            <mxPoint x="870" y="660" as="sourcePoint" />
            <mxPoint x="1358" y="660" as="targetPoint" />
            <Array as="points">
              <mxPoint x="968" y="660" />
            </Array>
          </mxGeometry>
        </mxCell>
        <mxCell id="gcZu40GBeY7oq4u_h3x9-140" value="发起查征" style="edgeLabel;html=1;align=center;verticalAlign=middle;resizable=0;points=[];" vertex="1" connectable="0" parent="gcZu40GBeY7oq4u_h3x9-139">
          <mxGeometry x="0.0292" y="-3" relative="1" as="geometry">
            <mxPoint y="-3" as="offset" />
          </mxGeometry>
        </mxCell>
        <mxCell id="gcZu40GBeY7oq4u_h3x9-141" value="" style="endArrow=block;html=1;rounded=0;strokeWidth=2;endFill=1;strokeColor=#000000;fillColor=#000000;" edge="1" parent="1" source="gcZu40GBeY7oq4u_h3x9-80" target="gcZu40GBeY7oq4u_h3x9-24">
          <mxGeometry width="50" height="50" relative="1" as="geometry">
            <mxPoint x="1358" y="690" as="sourcePoint" />
            <mxPoint x="870" y="690" as="targetPoint" />
            <Array as="points">
              <mxPoint x="971" y="690" />
            </Array>
          </mxGeometry>
        </mxCell>
        <mxCell id="gcZu40GBeY7oq4u_h3x9-142" value="结果返回" style="edgeLabel;html=1;align=center;verticalAlign=middle;resizable=0;points=[];" vertex="1" connectable="0" parent="gcZu40GBeY7oq4u_h3x9-141">
          <mxGeometry x="0.0292" y="-3" relative="1" as="geometry">
            <mxPoint y="-3" as="offset" />
          </mxGeometry>
        </mxCell>
        <mxCell id="gcZu40GBeY7oq4u_h3x9-143" style="edgeStyle=orthogonalEdgeStyle;rounded=0;orthogonalLoop=1;jettySize=auto;html=1;curved=0;strokeWidth=2;" edge="1" parent="1">
          <mxGeometry relative="1" as="geometry">
            <mxPoint x="1375" y="320" as="sourcePoint" />
            <mxPoint x="1655" y="320" as="targetPoint" />
          </mxGeometry>
        </mxCell>
        <mxCell id="gcZu40GBeY7oq4u_h3x9-144" value="小贷授信请求" style="edgeLabel;html=1;align=center;verticalAlign=middle;resizable=0;points=[];" vertex="1" connectable="0" parent="gcZu40GBeY7oq4u_h3x9-143">
          <mxGeometry x="-0.0847" relative="1" as="geometry">
            <mxPoint as="offset" />
          </mxGeometry>
        </mxCell>
        <mxCell id="gcZu40GBeY7oq4u_h3x9-145" style="edgeStyle=orthogonalEdgeStyle;rounded=0;orthogonalLoop=1;jettySize=auto;html=1;curved=0;strokeWidth=2;" edge="1" parent="1">
          <mxGeometry relative="1" as="geometry">
            <mxPoint x="1655" y="340" as="sourcePoint" />
            <mxPoint x="1375" y="340" as="targetPoint" />
          </mxGeometry>
        </mxCell>
        <mxCell id="gcZu40GBeY7oq4u_h3x9-146" value="授信结果回调" style="edgeLabel;html=1;align=center;verticalAlign=middle;resizable=0;points=[];" vertex="1" connectable="0" parent="gcZu40GBeY7oq4u_h3x9-145">
          <mxGeometry x="0.0898" y="3" relative="1" as="geometry">
            <mxPoint as="offset" />
          </mxGeometry>
        </mxCell>
        <mxCell id="gcZu40GBeY7oq4u_h3x9-147" style="edgeStyle=orthogonalEdgeStyle;rounded=0;orthogonalLoop=1;jettySize=auto;html=1;curved=0;strokeWidth=2;" edge="1" parent="1">
          <mxGeometry relative="1" as="geometry">
            <mxPoint x="1375" y="660" as="sourcePoint" />
            <mxPoint x="1655" y="660" as="targetPoint" />
          </mxGeometry>
        </mxCell>
        <mxCell id="gcZu40GBeY7oq4u_h3x9-148" value="小贷授信请求" style="edgeLabel;html=1;align=center;verticalAlign=middle;resizable=0;points=[];" vertex="1" connectable="0" parent="gcZu40GBeY7oq4u_h3x9-147">
          <mxGeometry x="-0.0847" relative="1" as="geometry">
            <mxPoint as="offset" />
          </mxGeometry>
        </mxCell>
        <mxCell id="gcZu40GBeY7oq4u_h3x9-149" style="edgeStyle=orthogonalEdgeStyle;rounded=0;orthogonalLoop=1;jettySize=auto;html=1;curved=0;strokeWidth=2;" edge="1" parent="1">
          <mxGeometry relative="1" as="geometry">
            <mxPoint x="1655" y="690" as="sourcePoint" />
            <mxPoint x="1375" y="690" as="targetPoint" />
          </mxGeometry>
        </mxCell>
        <mxCell id="gcZu40GBeY7oq4u_h3x9-150" value="授信结果回调" style="edgeLabel;html=1;align=center;verticalAlign=middle;resizable=0;points=[];" vertex="1" connectable="0" parent="gcZu40GBeY7oq4u_h3x9-149">
          <mxGeometry x="0.0898" y="3" relative="1" as="geometry">
            <mxPoint as="offset" />
          </mxGeometry>
        </mxCell>
        <mxCell id="gcZu40GBeY7oq4u_h3x9-151" style="edgeStyle=orthogonalEdgeStyle;rounded=0;orthogonalLoop=1;jettySize=auto;html=1;curved=0;strokeWidth=2;" edge="1" parent="1">
          <mxGeometry relative="1" as="geometry">
            <mxPoint x="1674.9999999999998" y="659.9999999999999" as="sourcePoint" />
            <mxPoint x="1810" y="659.9999999999999" as="targetPoint" />
          </mxGeometry>
        </mxCell>
        <mxCell id="gcZu40GBeY7oq4u_h3x9-152" value="小贷授信风控" style="edgeLabel;html=1;align=center;verticalAlign=middle;resizable=0;points=[];" vertex="1" connectable="0" parent="gcZu40GBeY7oq4u_h3x9-151">
          <mxGeometry x="-0.178" relative="1" as="geometry">
            <mxPoint as="offset" />
          </mxGeometry>
        </mxCell>
        <mxCell id="gcZu40GBeY7oq4u_h3x9-153" style="edgeStyle=orthogonalEdgeStyle;rounded=0;orthogonalLoop=1;jettySize=auto;html=1;curved=0;strokeWidth=2;" edge="1" parent="1">
          <mxGeometry relative="1" as="geometry">
            <mxPoint x="1810" y="689.9999999999999" as="sourcePoint" />
            <mxPoint x="1675" y="689.9999999999999" as="targetPoint" />
            <Array as="points" />
          </mxGeometry>
        </mxCell>
        <mxCell id="gcZu40GBeY7oq4u_h3x9-154" value="授信结果" style="edgeLabel;html=1;align=center;verticalAlign=middle;resizable=0;points=[];" vertex="1" connectable="0" parent="gcZu40GBeY7oq4u_h3x9-153">
          <mxGeometry x="0.2067" y="-1" relative="1" as="geometry">
            <mxPoint as="offset" />
          </mxGeometry>
        </mxCell>
        <mxCell id="gcZu40GBeY7oq4u_h3x9-155" value="" style="edgeStyle=orthogonalEdgeStyle;rounded=0;orthogonalLoop=1;jettySize=auto;html=1;curved=0;strokeWidth=2;" edge="1" parent="1" target="gcZu40GBeY7oq4u_h3x9-101">
          <mxGeometry relative="1" as="geometry">
            <mxPoint x="1830" y="660" as="sourcePoint" />
            <mxPoint x="1965" y="660" as="targetPoint" />
            <Array as="points">
              <mxPoint x="1940" y="660" />
              <mxPoint x="1940" y="660" />
            </Array>
          </mxGeometry>
        </mxCell>
        <mxCell id="gcZu40GBeY7oq4u_h3x9-156" value="查征" style="edgeLabel;html=1;align=center;verticalAlign=middle;resizable=0;points=[];" vertex="1" connectable="0" parent="gcZu40GBeY7oq4u_h3x9-155">
          <mxGeometry x="-0.178" relative="1" as="geometry">
            <mxPoint as="offset" />
          </mxGeometry>
        </mxCell>
        <mxCell id="gcZu40GBeY7oq4u_h3x9-157" style="edgeStyle=orthogonalEdgeStyle;rounded=0;orthogonalLoop=1;jettySize=auto;html=1;curved=0;strokeWidth=2;" edge="1" parent="1" source="gcZu40GBeY7oq4u_h3x9-101">
          <mxGeometry relative="1" as="geometry">
            <mxPoint x="1965" y="690" as="sourcePoint" />
            <mxPoint x="1830" y="690" as="targetPoint" />
            <Array as="points">
              <mxPoint x="1940" y="690" />
              <mxPoint x="1940" y="690" />
            </Array>
          </mxGeometry>
        </mxCell>
        <mxCell id="gcZu40GBeY7oq4u_h3x9-158" value="查征结果&lt;div&gt;轮询/回调&lt;/div&gt;" style="edgeLabel;html=1;align=center;verticalAlign=middle;resizable=0;points=[];" vertex="1" connectable="0" parent="gcZu40GBeY7oq4u_h3x9-157">
          <mxGeometry x="-0.178" relative="1" as="geometry">
            <mxPoint as="offset" />
          </mxGeometry>
        </mxCell>
        <mxCell id="gcZu40GBeY7oq4u_h3x9-159" style="edgeStyle=orthogonalEdgeStyle;rounded=0;orthogonalLoop=1;jettySize=auto;html=1;curved=0;strokeWidth=2;" edge="1" parent="1" source="gcZu40GBeY7oq4u_h3x9-101" target="gcZu40GBeY7oq4u_h3x9-113">
          <mxGeometry relative="1" as="geometry">
            <mxPoint x="1990" y="570" as="sourcePoint" />
            <mxPoint x="2120" y="570" as="targetPoint" />
            <Array as="points">
              <mxPoint x="2090" y="580" />
              <mxPoint x="2090" y="580" />
            </Array>
          </mxGeometry>
        </mxCell>
        <mxCell id="gcZu40GBeY7oq4u_h3x9-160" value="获取征信报文" style="edgeLabel;html=1;align=center;verticalAlign=middle;resizable=0;points=[];" vertex="1" connectable="0" parent="gcZu40GBeY7oq4u_h3x9-159">
          <mxGeometry x="-0.178" relative="1" as="geometry">
            <mxPoint as="offset" />
          </mxGeometry>
        </mxCell>
        <mxCell id="gcZu40GBeY7oq4u_h3x9-161" style="edgeStyle=orthogonalEdgeStyle;rounded=0;orthogonalLoop=1;jettySize=auto;html=1;curved=0;strokeWidth=2;" edge="1" parent="1" source="gcZu40GBeY7oq4u_h3x9-113" target="gcZu40GBeY7oq4u_h3x9-101">
          <mxGeometry relative="1" as="geometry">
            <mxPoint x="2120" y="600" as="sourcePoint" />
            <mxPoint x="1990" y="600" as="targetPoint" />
            <Array as="points">
              <mxPoint x="2110" y="600" />
              <mxPoint x="2110" y="600" />
            </Array>
          </mxGeometry>
        </mxCell>
        <mxCell id="gcZu40GBeY7oq4u_h3x9-162" value="征信报文返回" style="edgeLabel;html=1;align=center;verticalAlign=middle;resizable=0;points=[];" vertex="1" connectable="0" parent="gcZu40GBeY7oq4u_h3x9-161">
          <mxGeometry x="-0.178" relative="1" as="geometry">
            <mxPoint as="offset" />
          </mxGeometry>
        </mxCell>
        <mxCell id="gcZu40GBeY7oq4u_h3x9-163" style="edgeStyle=orthogonalEdgeStyle;rounded=0;orthogonalLoop=1;jettySize=auto;html=1;curved=0;strokeWidth=2;" edge="1" parent="1" source="gcZu40GBeY7oq4u_h3x9-101">
          <mxGeometry relative="1" as="geometry">
            <mxPoint x="2020" y="680" as="sourcePoint" />
            <mxPoint x="2285" y="680" as="targetPoint" />
            <Array as="points">
              <mxPoint x="2070" y="680" />
              <mxPoint x="2070" y="680" />
            </Array>
          </mxGeometry>
        </mxCell>
        <mxCell id="gcZu40GBeY7oq4u_h3x9-164" value="征信报文单号申请征信" style="edgeLabel;html=1;align=center;verticalAlign=middle;resizable=0;points=[];" vertex="1" connectable="0" parent="gcZu40GBeY7oq4u_h3x9-163">
          <mxGeometry x="-0.0457" y="1" relative="1" as="geometry">
            <mxPoint as="offset" />
          </mxGeometry>
        </mxCell>
        <mxCell id="gcZu40GBeY7oq4u_h3x9-165" style="edgeStyle=orthogonalEdgeStyle;rounded=0;orthogonalLoop=1;jettySize=auto;html=1;curved=0;strokeWidth=2;" edge="1" parent="1" target="gcZu40GBeY7oq4u_h3x9-101">
          <mxGeometry relative="1" as="geometry">
            <mxPoint x="2285" y="700" as="sourcePoint" />
            <mxPoint x="2020" y="700" as="targetPoint" />
            <Array as="points">
              <mxPoint x="2060" y="700" />
              <mxPoint x="2060" y="700" />
            </Array>
          </mxGeometry>
        </mxCell>
        <mxCell id="gcZu40GBeY7oq4u_h3x9-166" value="结果返回" style="edgeLabel;html=1;align=center;verticalAlign=middle;resizable=0;points=[];" vertex="1" connectable="0" parent="gcZu40GBeY7oq4u_h3x9-165">
          <mxGeometry x="0.1171" relative="1" as="geometry">
            <mxPoint as="offset" />
          </mxGeometry>
        </mxCell>
        <mxCell id="gcZu40GBeY7oq4u_h3x9-167" style="edgeStyle=orthogonalEdgeStyle;rounded=0;orthogonalLoop=1;jettySize=auto;html=1;curved=0;strokeWidth=2;" edge="1" parent="1">
          <mxGeometry relative="1" as="geometry">
            <mxPoint x="2305" y="610" as="sourcePoint" />
            <mxPoint x="2445" y="610" as="targetPoint" />
            <Array as="points" />
          </mxGeometry>
        </mxCell>
        <mxCell id="gcZu40GBeY7oq4u_h3x9-168" value="征信中间变量申请" style="edgeLabel;html=1;align=center;verticalAlign=middle;resizable=0;points=[];" vertex="1" connectable="0" parent="gcZu40GBeY7oq4u_h3x9-167">
          <mxGeometry x="-0.2457" relative="1" as="geometry">
            <mxPoint x="12" as="offset" />
          </mxGeometry>
        </mxCell>
        <mxCell id="gcZu40GBeY7oq4u_h3x9-169" style="edgeStyle=orthogonalEdgeStyle;rounded=0;orthogonalLoop=1;jettySize=auto;html=1;curved=0;strokeWidth=2;" edge="1" parent="1">
          <mxGeometry relative="1" as="geometry">
            <mxPoint x="2445" y="630" as="sourcePoint" />
            <mxPoint x="2305" y="630" as="targetPoint" />
            <Array as="points" />
          </mxGeometry>
        </mxCell>
        <mxCell id="gcZu40GBeY7oq4u_h3x9-170" value="中间变量返回" style="edgeLabel;html=1;align=center;verticalAlign=middle;resizable=0;points=[];" vertex="1" connectable="0" parent="gcZu40GBeY7oq4u_h3x9-169">
          <mxGeometry x="0.2457" y="-3" relative="1" as="geometry">
            <mxPoint x="12" y="3" as="offset" />
          </mxGeometry>
        </mxCell>
        <mxCell id="gcZu40GBeY7oq4u_h3x9-171" style="edgeStyle=orthogonalEdgeStyle;rounded=0;orthogonalLoop=1;jettySize=auto;html=1;curved=0;strokeWidth=2;" edge="1" parent="1">
          <mxGeometry relative="1" as="geometry">
            <mxPoint x="2305" y="670" as="sourcePoint" />
            <mxPoint x="2445" y="670" as="targetPoint" />
            <Array as="points" />
          </mxGeometry>
        </mxCell>
        <mxCell id="gcZu40GBeY7oq4u_h3x9-172" value="征信规则计算" style="edgeLabel;html=1;align=center;verticalAlign=middle;resizable=0;points=[];" vertex="1" connectable="0" parent="gcZu40GBeY7oq4u_h3x9-171">
          <mxGeometry x="-0.1" relative="1" as="geometry">
            <mxPoint as="offset" />
          </mxGeometry>
        </mxCell>
        <mxCell id="gcZu40GBeY7oq4u_h3x9-173" style="edgeStyle=orthogonalEdgeStyle;rounded=0;orthogonalLoop=1;jettySize=auto;html=1;curved=0;strokeWidth=2;" edge="1" parent="1">
          <mxGeometry relative="1" as="geometry">
            <mxPoint x="2445" y="690" as="sourcePoint" />
            <mxPoint x="2305" y="690" as="targetPoint" />
            <Array as="points" />
          </mxGeometry>
        </mxCell>
        <mxCell id="gcZu40GBeY7oq4u_h3x9-174" value="规则结果返回" style="edgeLabel;html=1;align=center;verticalAlign=middle;resizable=0;points=[];" vertex="1" connectable="0" parent="gcZu40GBeY7oq4u_h3x9-173">
          <mxGeometry x="-0.1" relative="1" as="geometry">
            <mxPoint as="offset" />
          </mxGeometry>
        </mxCell>
        <mxCell id="gcZu40GBeY7oq4u_h3x9-175" value="" style="endArrow=block;html=1;rounded=0;strokeWidth=2;endFill=1;" edge="1" parent="1" source="gcZu40GBeY7oq4u_h3x9-33" target="gcZu40GBeY7oq4u_h3x9-27">
          <mxGeometry width="50" height="50" relative="1" as="geometry">
            <mxPoint x="1120" y="950" as="sourcePoint" />
            <mxPoint x="1010" y="950" as="targetPoint" />
            <Array as="points">
              <mxPoint x="1105" y="950" />
            </Array>
          </mxGeometry>
        </mxCell>
        <mxCell id="gcZu40GBeY7oq4u_h3x9-176" value="匹配结果" style="edgeLabel;html=1;align=center;verticalAlign=middle;resizable=0;points=[];" vertex="1" connectable="0" parent="gcZu40GBeY7oq4u_h3x9-175">
          <mxGeometry x="0.0436" relative="1" as="geometry">
            <mxPoint as="offset" />
          </mxGeometry>
        </mxCell>
        <mxCell id="gcZu40GBeY7oq4u_h3x9-177" value="" style="endArrow=block;html=1;rounded=0;strokeWidth=2;endFill=1;" edge="1" parent="1" source="gcZu40GBeY7oq4u_h3x9-27" target="gcZu40GBeY7oq4u_h3x9-33">
          <mxGeometry width="50" height="50" relative="1" as="geometry">
            <mxPoint x="1010" y="970" as="sourcePoint" />
            <mxPoint x="1120" y="970" as="targetPoint" />
            <Array as="points">
              <mxPoint x="1105" y="970" />
            </Array>
          </mxGeometry>
        </mxCell>
        <mxCell id="gcZu40GBeY7oq4u_h3x9-178" value="确认要款" style="edgeLabel;html=1;align=center;verticalAlign=middle;resizable=0;points=[];" vertex="1" connectable="0" parent="gcZu40GBeY7oq4u_h3x9-177">
          <mxGeometry x="0.0292" y="-3" relative="1" as="geometry">
            <mxPoint y="-3" as="offset" />
          </mxGeometry>
        </mxCell>
        <mxCell id="gcZu40GBeY7oq4u_h3x9-179" value="" style="endArrow=block;html=1;rounded=0;strokeWidth=2;endFill=1;" edge="1" parent="1">
          <mxGeometry width="50" height="50" relative="1" as="geometry">
            <mxPoint x="987" y="950" as="sourcePoint" />
            <mxPoint x="265" y="950" as="targetPoint" />
          </mxGeometry>
        </mxCell>
        <mxCell id="gcZu40GBeY7oq4u_h3x9-180" value="匹配结果" style="edgeLabel;html=1;align=center;verticalAlign=middle;resizable=0;points=[];" vertex="1" connectable="0" parent="gcZu40GBeY7oq4u_h3x9-179">
          <mxGeometry x="0.3564" y="-1" relative="1" as="geometry">
            <mxPoint as="offset" />
          </mxGeometry>
        </mxCell>
        <mxCell id="gcZu40GBeY7oq4u_h3x9-181" value="" style="endArrow=block;html=1;rounded=0;strokeWidth=2;endFill=1;" edge="1" parent="1">
          <mxGeometry width="50" height="50" relative="1" as="geometry">
            <mxPoint x="265.0000000000001" y="970" as="sourcePoint" />
            <mxPoint x="987" y="970" as="targetPoint" />
          </mxGeometry>
        </mxCell>
        <mxCell id="gcZu40GBeY7oq4u_h3x9-182" value="确认要款" style="edgeLabel;html=1;align=center;verticalAlign=middle;resizable=0;points=[];" vertex="1" connectable="0" parent="gcZu40GBeY7oq4u_h3x9-181">
          <mxGeometry x="-0.3764" relative="1" as="geometry">
            <mxPoint x="17" as="offset" />
          </mxGeometry>
        </mxCell>
        <mxCell id="gcZu40GBeY7oq4u_h3x9-183" value="" style="endArrow=block;html=1;rounded=0;strokeWidth=2;endFill=1;" edge="1" parent="1">
          <mxGeometry width="50" height="50" relative="1" as="geometry">
            <mxPoint x="987" y="990" as="sourcePoint" />
            <mxPoint x="265" y="990" as="targetPoint" />
          </mxGeometry>
        </mxCell>
        <mxCell id="gcZu40GBeY7oq4u_h3x9-184" value="确认要款结果" style="edgeLabel;html=1;align=center;verticalAlign=middle;resizable=0;points=[];" vertex="1" connectable="0" parent="gcZu40GBeY7oq4u_h3x9-183">
          <mxGeometry x="0.3421" y="2" relative="1" as="geometry">
            <mxPoint as="offset" />
          </mxGeometry>
        </mxCell>
        <mxCell id="gcZu40GBeY7oq4u_h3x9-185" value="" style="endArrow=block;html=1;rounded=0;strokeWidth=2;endFill=1;" edge="1" parent="1" source="gcZu40GBeY7oq4u_h3x9-33" target="gcZu40GBeY7oq4u_h3x9-27">
          <mxGeometry width="50" height="50" relative="1" as="geometry">
            <mxPoint x="1120" y="990" as="sourcePoint" />
            <mxPoint x="1010" y="990" as="targetPoint" />
            <Array as="points">
              <mxPoint x="1108" y="990" />
            </Array>
          </mxGeometry>
        </mxCell>
        <mxCell id="gcZu40GBeY7oq4u_h3x9-186" value="确认要款结果" style="edgeLabel;html=1;align=center;verticalAlign=middle;resizable=0;points=[];" vertex="1" connectable="0" parent="gcZu40GBeY7oq4u_h3x9-185">
          <mxGeometry x="-0.0215" y="-1" relative="1" as="geometry">
            <mxPoint as="offset" />
          </mxGeometry>
        </mxCell>
        <mxCell id="gcZu40GBeY7oq4u_h3x9-187" value="" style="endArrow=block;html=1;rounded=0;strokeWidth=2;endFill=1;" edge="1" parent="1">
          <mxGeometry width="50" height="50" relative="1" as="geometry">
            <mxPoint x="265" y="1010" as="sourcePoint" />
            <mxPoint x="987" y="1010" as="targetPoint" />
          </mxGeometry>
        </mxCell>
        <mxCell id="gcZu40GBeY7oq4u_h3x9-188" value="可放款通知" style="edgeLabel;html=1;align=center;verticalAlign=middle;resizable=0;points=[];" vertex="1" connectable="0" parent="gcZu40GBeY7oq4u_h3x9-187">
          <mxGeometry x="-0.3764" relative="1" as="geometry">
            <mxPoint x="17" as="offset" />
          </mxGeometry>
        </mxCell>
        <mxCell id="gcZu40GBeY7oq4u_h3x9-189" value="" style="endArrow=block;html=1;rounded=0;strokeWidth=2;endFill=1;" edge="1" parent="1" source="gcZu40GBeY7oq4u_h3x9-27" target="gcZu40GBeY7oq4u_h3x9-33">
          <mxGeometry width="50" height="50" relative="1" as="geometry">
            <mxPoint x="1010" y="1050" as="sourcePoint" />
            <mxPoint x="1120" y="1050" as="targetPoint" />
            <Array as="points">
              <mxPoint x="1108" y="1050" />
            </Array>
          </mxGeometry>
        </mxCell>
        <mxCell id="gcZu40GBeY7oq4u_h3x9-190" value="放款请求" style="edgeLabel;html=1;align=center;verticalAlign=middle;resizable=0;points=[];" vertex="1" connectable="0" parent="gcZu40GBeY7oq4u_h3x9-189">
          <mxGeometry x="0.0292" y="-3" relative="1" as="geometry">
            <mxPoint y="-3" as="offset" />
          </mxGeometry>
        </mxCell>
        <mxCell id="gcZu40GBeY7oq4u_h3x9-191" value="" style="endArrow=block;html=1;rounded=0;strokeWidth=2;endFill=1;" edge="1" parent="1" target="gcZu40GBeY7oq4u_h3x9-82">
          <mxGeometry width="50" height="50" relative="1" as="geometry">
            <mxPoint x="1147" y="1050" as="sourcePoint" />
            <mxPoint x="1267" y="1050" as="targetPoint" />
            <Array as="points">
              <mxPoint x="1248" y="1050" />
            </Array>
          </mxGeometry>
        </mxCell>
        <mxCell id="gcZu40GBeY7oq4u_h3x9-192" value="A类资产放款请求&lt;div&gt;(小贷查过征信)&lt;/div&gt;" style="edgeLabel;html=1;align=center;verticalAlign=middle;resizable=0;points=[];" vertex="1" connectable="0" parent="gcZu40GBeY7oq4u_h3x9-191">
          <mxGeometry x="-0.6115" relative="1" as="geometry">
            <mxPoint x="42" as="offset" />
          </mxGeometry>
        </mxCell>
        <mxCell id="gcZu40GBeY7oq4u_h3x9-193" value="" style="endArrow=block;html=1;rounded=0;strokeWidth=2;endFill=1;" edge="1" parent="1" source="gcZu40GBeY7oq4u_h3x9-82">
          <mxGeometry width="50" height="50" relative="1" as="geometry">
            <mxPoint x="1385" y="1050" as="sourcePoint" />
            <mxPoint x="1505" y="1050" as="targetPoint" />
            <Array as="points">
              <mxPoint x="1486" y="1050" />
            </Array>
          </mxGeometry>
        </mxCell>
        <mxCell id="gcZu40GBeY7oq4u_h3x9-194" value="放款" style="edgeLabel;html=1;align=center;verticalAlign=middle;resizable=0;points=[];" vertex="1" connectable="0" parent="gcZu40GBeY7oq4u_h3x9-193">
          <mxGeometry x="0.0292" y="-3" relative="1" as="geometry">
            <mxPoint y="-3" as="offset" />
          </mxGeometry>
        </mxCell>
        <mxCell id="gcZu40GBeY7oq4u_h3x9-195" value="" style="endArrow=block;html=1;rounded=0;strokeWidth=2;endFill=1;" edge="1" parent="1">
          <mxGeometry width="50" height="50" relative="1" as="geometry">
            <mxPoint x="1505" y="1080" as="sourcePoint" />
            <mxPoint x="1375" y="1080" as="targetPoint" />
            <Array as="points">
              <mxPoint x="1486" y="1080" />
            </Array>
          </mxGeometry>
        </mxCell>
        <mxCell id="gcZu40GBeY7oq4u_h3x9-196" value="放款通知" style="edgeLabel;html=1;align=center;verticalAlign=middle;resizable=0;points=[];" vertex="1" connectable="0" parent="gcZu40GBeY7oq4u_h3x9-195">
          <mxGeometry x="0.0335" y="-1" relative="1" as="geometry">
            <mxPoint as="offset" />
          </mxGeometry>
        </mxCell>
        <mxCell id="gcZu40GBeY7oq4u_h3x9-197" value="" style="endArrow=block;html=1;rounded=0;strokeWidth=2;endFill=1;" edge="1" parent="1" source="gcZu40GBeY7oq4u_h3x9-82" target="gcZu40GBeY7oq4u_h3x9-33">
          <mxGeometry width="50" height="50" relative="1" as="geometry">
            <mxPoint x="1350" y="1080" as="sourcePoint" />
            <mxPoint x="1150" y="1080" as="targetPoint" />
            <Array as="points">
              <mxPoint x="1251" y="1080" />
            </Array>
          </mxGeometry>
        </mxCell>
        <mxCell id="gcZu40GBeY7oq4u_h3x9-198" value="放款结果" style="edgeLabel;html=1;align=center;verticalAlign=middle;resizable=0;points=[];" vertex="1" connectable="0" parent="gcZu40GBeY7oq4u_h3x9-197">
          <mxGeometry x="0.1514" relative="1" as="geometry">
            <mxPoint as="offset" />
          </mxGeometry>
        </mxCell>
        <mxCell id="gcZu40GBeY7oq4u_h3x9-199" value="" style="endArrow=block;html=1;rounded=0;strokeWidth=2;endFill=1;" edge="1" parent="1" source="gcZu40GBeY7oq4u_h3x9-33" target="gcZu40GBeY7oq4u_h3x9-31">
          <mxGeometry width="50" height="50" relative="1" as="geometry">
            <mxPoint x="1120" y="1080" as="sourcePoint" />
            <mxPoint x="1010" y="1080" as="targetPoint" />
            <Array as="points">
              <mxPoint x="1111" y="1080" />
            </Array>
          </mxGeometry>
        </mxCell>
        <mxCell id="gcZu40GBeY7oq4u_h3x9-200" value="放款结果通知" style="edgeLabel;html=1;align=center;verticalAlign=middle;resizable=0;points=[];" vertex="1" connectable="0" parent="gcZu40GBeY7oq4u_h3x9-199">
          <mxGeometry x="0.0292" y="-3" relative="1" as="geometry">
            <mxPoint y="-3" as="offset" />
          </mxGeometry>
        </mxCell>
        <mxCell id="gcZu40GBeY7oq4u_h3x9-201" value="" style="endArrow=block;html=1;rounded=0;strokeWidth=2;endFill=1;" edge="1" parent="1">
          <mxGeometry width="50" height="50" relative="1" as="geometry">
            <mxPoint x="987" y="1080" as="sourcePoint" />
            <mxPoint x="265" y="1080" as="targetPoint" />
          </mxGeometry>
        </mxCell>
        <mxCell id="gcZu40GBeY7oq4u_h3x9-202" value="放款结果通知" style="edgeLabel;html=1;align=center;verticalAlign=middle;resizable=0;points=[];" vertex="1" connectable="0" parent="gcZu40GBeY7oq4u_h3x9-201">
          <mxGeometry x="0.4055" relative="1" as="geometry">
            <mxPoint as="offset" />
          </mxGeometry>
        </mxCell>
        <mxCell id="gcZu40GBeY7oq4u_h3x9-203" value="" style="endArrow=block;html=1;rounded=0;strokeWidth=2;endFill=1;strokeColor=#FF3333;" edge="1" parent="1" source="gcZu40GBeY7oq4u_h3x9-34" target="gcZu40GBeY7oq4u_h3x9-65">
          <mxGeometry width="50" height="50" relative="1" as="geometry">
            <mxPoint x="842" y="1145.82" as="sourcePoint" />
            <mxPoint x="720" y="1146" as="targetPoint" />
            <Array as="points">
              <mxPoint x="805" y="1145.82" />
            </Array>
          </mxGeometry>
        </mxCell>
        <mxCell id="gcZu40GBeY7oq4u_h3x9-204" value="&lt;font color=&quot;#ff3333&quot;&gt;&lt;br&gt;&lt;/font&gt;" style="edgeLabel;html=1;align=center;verticalAlign=middle;resizable=0;points=[];" vertex="1" connectable="0" parent="gcZu40GBeY7oq4u_h3x9-203">
          <mxGeometry x="0.0292" y="-3" relative="1" as="geometry">
            <mxPoint y="-3" as="offset" />
          </mxGeometry>
        </mxCell>
        <mxCell id="gcZu40GBeY7oq4u_h3x9-205" value="&lt;font style=&quot;color: rgb(255, 51, 51);&quot;&gt;小贷授信信息查询&lt;/font&gt;" style="edgeLabel;html=1;align=center;verticalAlign=middle;resizable=0;points=[];" vertex="1" connectable="0" parent="gcZu40GBeY7oq4u_h3x9-203">
          <mxGeometry x="0.034" y="-1" relative="1" as="geometry">
            <mxPoint as="offset" />
          </mxGeometry>
        </mxCell>
        <mxCell id="gcZu40GBeY7oq4u_h3x9-206" value="" style="endArrow=block;html=1;rounded=0;strokeWidth=2;endFill=1;strokeColor=#FF3333;" edge="1" parent="1" source="gcZu40GBeY7oq4u_h3x9-65" target="gcZu40GBeY7oq4u_h3x9-34">
          <mxGeometry width="50" height="50" relative="1" as="geometry">
            <mxPoint x="720" y="1170" as="sourcePoint" />
            <mxPoint x="1122" y="1170.18" as="targetPoint" />
            <Array as="points">
              <mxPoint x="800" y="1170" />
            </Array>
          </mxGeometry>
        </mxCell>
        <mxCell id="gcZu40GBeY7oq4u_h3x9-207" value="&lt;font color=&quot;#ff3333&quot;&gt;&lt;br&gt;&lt;/font&gt;" style="edgeLabel;html=1;align=center;verticalAlign=middle;resizable=0;points=[];" vertex="1" connectable="0" parent="gcZu40GBeY7oq4u_h3x9-206">
          <mxGeometry x="0.0292" y="-3" relative="1" as="geometry">
            <mxPoint y="-3" as="offset" />
          </mxGeometry>
        </mxCell>
        <mxCell id="gcZu40GBeY7oq4u_h3x9-208" value="&lt;font style=&quot;color: rgb(255, 51, 51);&quot;&gt;小贷授信信息返回&lt;/font&gt;" style="edgeLabel;html=1;align=center;verticalAlign=middle;resizable=0;points=[];" vertex="1" connectable="0" parent="gcZu40GBeY7oq4u_h3x9-206">
          <mxGeometry x="0.034" y="-1" relative="1" as="geometry">
            <mxPoint as="offset" />
          </mxGeometry>
        </mxCell>
        <mxCell id="gcZu40GBeY7oq4u_h3x9-209" value="" style="endArrow=block;html=1;rounded=0;strokeWidth=2;endFill=1;strokeColor=#FF3333;" edge="1" parent="1" source="gcZu40GBeY7oq4u_h3x9-34" target="gcZu40GBeY7oq4u_h3x9-65">
          <mxGeometry width="50" height="50" relative="1" as="geometry">
            <mxPoint x="1120" y="1190" as="sourcePoint" />
            <mxPoint x="720" y="1190" as="targetPoint" />
            <Array as="points">
              <mxPoint x="805" y="1190" />
            </Array>
          </mxGeometry>
        </mxCell>
        <mxCell id="gcZu40GBeY7oq4u_h3x9-210" value="&lt;font color=&quot;#ff3333&quot;&gt;&lt;br&gt;&lt;/font&gt;" style="edgeLabel;html=1;align=center;verticalAlign=middle;resizable=0;points=[];" vertex="1" connectable="0" parent="gcZu40GBeY7oq4u_h3x9-209">
          <mxGeometry x="0.0292" y="-3" relative="1" as="geometry">
            <mxPoint y="-3" as="offset" />
          </mxGeometry>
        </mxCell>
        <mxCell id="gcZu40GBeY7oq4u_h3x9-211" value="&lt;font style=&quot;color: rgb(255, 51, 51);&quot;&gt;补授信&lt;/font&gt;" style="edgeLabel;html=1;align=center;verticalAlign=middle;resizable=0;points=[];" vertex="1" connectable="0" parent="gcZu40GBeY7oq4u_h3x9-209">
          <mxGeometry x="0.034" y="-1" relative="1" as="geometry">
            <mxPoint as="offset" />
          </mxGeometry>
        </mxCell>
        <mxCell id="gcZu40GBeY7oq4u_h3x9-212" value="" style="endArrow=block;html=1;rounded=0;strokeWidth=2;endFill=1;strokeColor=#FF3333;" edge="1" parent="1" source="gcZu40GBeY7oq4u_h3x9-65" target="gcZu40GBeY7oq4u_h3x9-25">
          <mxGeometry width="50" height="50" relative="1" as="geometry">
            <mxPoint x="725" y="1250" as="sourcePoint" />
            <mxPoint x="840" y="1250" as="targetPoint" />
            <Array as="points">
              <mxPoint x="810" y="1250" />
            </Array>
          </mxGeometry>
        </mxCell>
        <mxCell id="gcZu40GBeY7oq4u_h3x9-213" value="&lt;font color=&quot;#ff3333&quot;&gt;&lt;br&gt;&lt;/font&gt;" style="edgeLabel;html=1;align=center;verticalAlign=middle;resizable=0;points=[];" vertex="1" connectable="0" parent="gcZu40GBeY7oq4u_h3x9-212">
          <mxGeometry x="0.0292" y="-3" relative="1" as="geometry">
            <mxPoint y="-3" as="offset" />
          </mxGeometry>
        </mxCell>
        <mxCell id="gcZu40GBeY7oq4u_h3x9-214" value="&lt;font color=&quot;#ff3333&quot;&gt;补授信请求&lt;/font&gt;" style="edgeLabel;html=1;align=center;verticalAlign=middle;resizable=0;points=[];" vertex="1" connectable="0" parent="gcZu40GBeY7oq4u_h3x9-212">
          <mxGeometry x="0.034" y="-1" relative="1" as="geometry">
            <mxPoint as="offset" />
          </mxGeometry>
        </mxCell>
        <mxCell id="gcZu40GBeY7oq4u_h3x9-215" value="" style="endArrow=block;html=1;rounded=0;strokeWidth=2;endFill=1;strokeColor=#FF3333;" edge="1" parent="1" source="gcZu40GBeY7oq4u_h3x9-25" target="gcZu40GBeY7oq4u_h3x9-65">
          <mxGeometry width="50" height="50" relative="1" as="geometry">
            <mxPoint x="840" y="1270" as="sourcePoint" />
            <mxPoint x="720" y="1270" as="targetPoint" />
            <Array as="points">
              <mxPoint x="815" y="1270" />
            </Array>
          </mxGeometry>
        </mxCell>
        <mxCell id="gcZu40GBeY7oq4u_h3x9-216" value="&lt;font color=&quot;#ff3333&quot;&gt;&lt;br&gt;&lt;/font&gt;" style="edgeLabel;html=1;align=center;verticalAlign=middle;resizable=0;points=[];" vertex="1" connectable="0" parent="gcZu40GBeY7oq4u_h3x9-215">
          <mxGeometry x="0.0292" y="-3" relative="1" as="geometry">
            <mxPoint y="-3" as="offset" />
          </mxGeometry>
        </mxCell>
        <mxCell id="gcZu40GBeY7oq4u_h3x9-217" value="&lt;font color=&quot;#ff3333&quot;&gt;结果回调&lt;/font&gt;" style="edgeLabel;html=1;align=center;verticalAlign=middle;resizable=0;points=[];" vertex="1" connectable="0" parent="gcZu40GBeY7oq4u_h3x9-215">
          <mxGeometry x="0.034" y="-1" relative="1" as="geometry">
            <mxPoint as="offset" />
          </mxGeometry>
        </mxCell>
        <mxCell id="gcZu40GBeY7oq4u_h3x9-218" value="" style="endArrow=block;html=1;rounded=0;strokeWidth=2;endFill=1;strokeColor=#000000;fillColor=#000000;" edge="1" parent="1" source="gcZu40GBeY7oq4u_h3x9-25" target="gcZu40GBeY7oq4u_h3x9-81">
          <mxGeometry width="50" height="50" relative="1" as="geometry">
            <mxPoint x="870" y="1250" as="sourcePoint" />
            <mxPoint x="1340" y="1250" as="targetPoint" />
            <Array as="points">
              <mxPoint x="968" y="1250" />
            </Array>
          </mxGeometry>
        </mxCell>
        <mxCell id="gcZu40GBeY7oq4u_h3x9-219" value="发起查征" style="edgeLabel;html=1;align=center;verticalAlign=middle;resizable=0;points=[];" vertex="1" connectable="0" parent="gcZu40GBeY7oq4u_h3x9-218">
          <mxGeometry x="0.0292" y="-3" relative="1" as="geometry">
            <mxPoint y="-3" as="offset" />
          </mxGeometry>
        </mxCell>
        <mxCell id="gcZu40GBeY7oq4u_h3x9-220" value="" style="endArrow=block;html=1;rounded=0;strokeWidth=2;endFill=1;strokeColor=#000000;fillColor=#000000;" edge="1" parent="1" source="gcZu40GBeY7oq4u_h3x9-81" target="gcZu40GBeY7oq4u_h3x9-25">
          <mxGeometry width="50" height="50" relative="1" as="geometry">
            <mxPoint x="1350" y="1270" as="sourcePoint" />
            <mxPoint x="870" y="1270" as="targetPoint" />
            <Array as="points">
              <mxPoint x="971" y="1270" />
            </Array>
          </mxGeometry>
        </mxCell>
        <mxCell id="gcZu40GBeY7oq4u_h3x9-221" value="结果回调" style="edgeLabel;html=1;align=center;verticalAlign=middle;resizable=0;points=[];" vertex="1" connectable="0" parent="gcZu40GBeY7oq4u_h3x9-220">
          <mxGeometry x="-0.0401" relative="1" as="geometry">
            <mxPoint as="offset" />
          </mxGeometry>
        </mxCell>
        <mxCell id="gcZu40GBeY7oq4u_h3x9-222" value="" style="html=1;points=[[0,0,0,0,5],[0,1,0,0,-5],[1,0,0,0,5],[1,1,0,0,-5]];perimeter=orthogonalPerimeter;outlineConnect=0;targetShapes=umlLifeline;portConstraint=eastwest;newEdgeStyle={&quot;curved&quot;:0,&quot;rounded&quot;:0};" vertex="1" parent="1">
          <mxGeometry x="1655" y="1220" width="20" height="70" as="geometry" />
        </mxCell>
        <mxCell id="gcZu40GBeY7oq4u_h3x9-223" style="edgeStyle=orthogonalEdgeStyle;rounded=0;orthogonalLoop=1;jettySize=auto;html=1;curved=0;strokeWidth=2;" edge="1" parent="1" target="gcZu40GBeY7oq4u_h3x9-222">
          <mxGeometry relative="1" as="geometry">
            <mxPoint x="1375.0000000000002" y="1249.9999999999998" as="sourcePoint" />
            <mxPoint x="1640" y="1250" as="targetPoint" />
            <Array as="points">
              <mxPoint x="1375" y="1251" />
            </Array>
          </mxGeometry>
        </mxCell>
        <mxCell id="gcZu40GBeY7oq4u_h3x9-224" value="小贷授信请求" style="edgeLabel;html=1;align=center;verticalAlign=middle;resizable=0;points=[];" vertex="1" connectable="0" parent="gcZu40GBeY7oq4u_h3x9-223">
          <mxGeometry x="-0.0847" relative="1" as="geometry">
            <mxPoint as="offset" />
          </mxGeometry>
        </mxCell>
        <mxCell id="gcZu40GBeY7oq4u_h3x9-225" style="edgeStyle=orthogonalEdgeStyle;rounded=0;orthogonalLoop=1;jettySize=auto;html=1;curved=0;strokeWidth=2;" edge="1" parent="1" source="gcZu40GBeY7oq4u_h3x9-222">
          <mxGeometry relative="1" as="geometry">
            <mxPoint x="1630" y="1270" as="sourcePoint" />
            <mxPoint x="1375.0000000000002" y="1269.8099999999997" as="targetPoint" />
            <Array as="points">
              <mxPoint x="1590" y="1270" />
              <mxPoint x="1590" y="1270" />
            </Array>
          </mxGeometry>
        </mxCell>
        <mxCell id="gcZu40GBeY7oq4u_h3x9-226" value="授信结果回调" style="edgeLabel;html=1;align=center;verticalAlign=middle;resizable=0;points=[];" vertex="1" connectable="0" parent="gcZu40GBeY7oq4u_h3x9-225">
          <mxGeometry x="0.1046" relative="1" as="geometry">
            <mxPoint as="offset" />
          </mxGeometry>
        </mxCell>
        <mxCell id="gcZu40GBeY7oq4u_h3x9-227" style="edgeStyle=orthogonalEdgeStyle;rounded=0;orthogonalLoop=1;jettySize=auto;html=1;curved=0;strokeWidth=2;" edge="1" parent="1">
          <mxGeometry relative="1" as="geometry">
            <mxPoint x="1674.9999999999998" y="1250" as="sourcePoint" />
            <mxPoint x="1810" y="1250" as="targetPoint" />
          </mxGeometry>
        </mxCell>
        <mxCell id="gcZu40GBeY7oq4u_h3x9-228" value="小贷授信风控" style="edgeLabel;html=1;align=center;verticalAlign=middle;resizable=0;points=[];" vertex="1" connectable="0" parent="gcZu40GBeY7oq4u_h3x9-227">
          <mxGeometry x="-0.178" relative="1" as="geometry">
            <mxPoint as="offset" />
          </mxGeometry>
        </mxCell>
        <mxCell id="gcZu40GBeY7oq4u_h3x9-229" style="edgeStyle=orthogonalEdgeStyle;rounded=0;orthogonalLoop=1;jettySize=auto;html=1;curved=0;strokeWidth=2;" edge="1" parent="1">
          <mxGeometry relative="1" as="geometry">
            <mxPoint x="1810" y="1269.83" as="sourcePoint" />
            <mxPoint x="1674.9999999999998" y="1269.83" as="targetPoint" />
          </mxGeometry>
        </mxCell>
        <mxCell id="gcZu40GBeY7oq4u_h3x9-230" value="授信结果" style="edgeLabel;html=1;align=center;verticalAlign=middle;resizable=0;points=[];" vertex="1" connectable="0" parent="gcZu40GBeY7oq4u_h3x9-229">
          <mxGeometry x="0.3017" relative="1" as="geometry">
            <mxPoint as="offset" />
          </mxGeometry>
        </mxCell>
        <mxCell id="gcZu40GBeY7oq4u_h3x9-231" value="" style="edgeStyle=orthogonalEdgeStyle;rounded=0;orthogonalLoop=1;jettySize=auto;html=1;curved=0;strokeWidth=2;" edge="1" parent="1" target="gcZu40GBeY7oq4u_h3x9-102">
          <mxGeometry relative="1" as="geometry">
            <mxPoint x="1830" y="1250" as="sourcePoint" />
            <mxPoint x="1965" y="1250" as="targetPoint" />
            <Array as="points">
              <mxPoint x="1940" y="1250" />
              <mxPoint x="1940" y="1250" />
            </Array>
          </mxGeometry>
        </mxCell>
        <mxCell id="gcZu40GBeY7oq4u_h3x9-232" value="查征" style="edgeLabel;html=1;align=center;verticalAlign=middle;resizable=0;points=[];" vertex="1" connectable="0" parent="gcZu40GBeY7oq4u_h3x9-231">
          <mxGeometry x="-0.178" relative="1" as="geometry">
            <mxPoint as="offset" />
          </mxGeometry>
        </mxCell>
        <mxCell id="gcZu40GBeY7oq4u_h3x9-233" value="" style="edgeStyle=orthogonalEdgeStyle;rounded=0;orthogonalLoop=1;jettySize=auto;html=1;curved=0;strokeWidth=2;" edge="1" parent="1">
          <mxGeometry relative="1" as="geometry">
            <mxPoint x="1975" y="1269.73" as="sourcePoint" />
            <mxPoint x="1830" y="1269.73" as="targetPoint" />
            <Array as="points">
              <mxPoint x="1940" y="1269.73" />
              <mxPoint x="1940" y="1269.73" />
            </Array>
          </mxGeometry>
        </mxCell>
        <mxCell id="gcZu40GBeY7oq4u_h3x9-234" value="查征结果&lt;div&gt;轮询/回调&lt;/div&gt;" style="edgeLabel;html=1;align=center;verticalAlign=middle;resizable=0;points=[];" vertex="1" connectable="0" parent="gcZu40GBeY7oq4u_h3x9-233">
          <mxGeometry x="0.1103" y="2" relative="1" as="geometry">
            <mxPoint as="offset" />
          </mxGeometry>
        </mxCell>
        <mxCell id="gcZu40GBeY7oq4u_h3x9-235" style="edgeStyle=orthogonalEdgeStyle;rounded=0;orthogonalLoop=1;jettySize=auto;html=1;curved=0;strokeWidth=2;" edge="1" parent="1" target="gcZu40GBeY7oq4u_h3x9-114">
          <mxGeometry relative="1" as="geometry">
            <mxPoint x="1995" y="1200" as="sourcePoint" />
            <mxPoint x="2120" y="1200" as="targetPoint" />
            <Array as="points">
              <mxPoint x="2100" y="1200" />
              <mxPoint x="2100" y="1200" />
            </Array>
          </mxGeometry>
        </mxCell>
        <mxCell id="gcZu40GBeY7oq4u_h3x9-236" value="获取征信报文" style="edgeLabel;html=1;align=center;verticalAlign=middle;resizable=0;points=[];" vertex="1" connectable="0" parent="gcZu40GBeY7oq4u_h3x9-235">
          <mxGeometry x="-0.178" relative="1" as="geometry">
            <mxPoint as="offset" />
          </mxGeometry>
        </mxCell>
        <mxCell id="gcZu40GBeY7oq4u_h3x9-237" style="edgeStyle=orthogonalEdgeStyle;rounded=0;orthogonalLoop=1;jettySize=auto;html=1;curved=0;strokeWidth=2;" edge="1" parent="1">
          <mxGeometry relative="1" as="geometry">
            <mxPoint x="2125" y="1219.9985714285715" as="sourcePoint" />
            <mxPoint x="1995" y="1219.9985714285715" as="targetPoint" />
            <Array as="points">
              <mxPoint x="2030" y="1219.97" />
              <mxPoint x="2030" y="1219.97" />
            </Array>
          </mxGeometry>
        </mxCell>
        <mxCell id="gcZu40GBeY7oq4u_h3x9-238" value="征信报文返回" style="edgeLabel;html=1;align=center;verticalAlign=middle;resizable=0;points=[];" vertex="1" connectable="0" parent="gcZu40GBeY7oq4u_h3x9-237">
          <mxGeometry x="0.0813" relative="1" as="geometry">
            <mxPoint as="offset" />
          </mxGeometry>
        </mxCell>
        <mxCell id="gcZu40GBeY7oq4u_h3x9-239" style="edgeStyle=orthogonalEdgeStyle;rounded=0;orthogonalLoop=1;jettySize=auto;html=1;curved=0;strokeWidth=2;" edge="1" parent="1" source="gcZu40GBeY7oq4u_h3x9-102" target="gcZu40GBeY7oq4u_h3x9-118">
          <mxGeometry relative="1" as="geometry">
            <mxPoint x="2000" y="1270" as="sourcePoint" />
            <mxPoint x="2280" y="1270" as="targetPoint" />
            <Array as="points" />
          </mxGeometry>
        </mxCell>
        <mxCell id="gcZu40GBeY7oq4u_h3x9-240" value="征信报文单号申请征信" style="edgeLabel;html=1;align=center;verticalAlign=middle;resizable=0;points=[];" vertex="1" connectable="0" parent="gcZu40GBeY7oq4u_h3x9-239">
          <mxGeometry x="-0.0457" y="1" relative="1" as="geometry">
            <mxPoint as="offset" />
          </mxGeometry>
        </mxCell>
        <mxCell id="gcZu40GBeY7oq4u_h3x9-241" style="edgeStyle=orthogonalEdgeStyle;rounded=0;orthogonalLoop=1;jettySize=auto;html=1;curved=0;strokeWidth=2;" edge="1" parent="1" source="gcZu40GBeY7oq4u_h3x9-118" target="gcZu40GBeY7oq4u_h3x9-102">
          <mxGeometry relative="1" as="geometry">
            <mxPoint x="2280" y="1290" as="sourcePoint" />
            <mxPoint x="2000" y="1290" as="targetPoint" />
            <Array as="points">
              <mxPoint x="2210" y="1290" />
              <mxPoint x="2210" y="1290" />
            </Array>
          </mxGeometry>
        </mxCell>
        <mxCell id="gcZu40GBeY7oq4u_h3x9-242" value="结果返回" style="edgeLabel;html=1;align=center;verticalAlign=middle;resizable=0;points=[];" vertex="1" connectable="0" parent="gcZu40GBeY7oq4u_h3x9-241">
          <mxGeometry x="-0.0457" y="1" relative="1" as="geometry">
            <mxPoint as="offset" />
          </mxGeometry>
        </mxCell>
        <mxCell id="gcZu40GBeY7oq4u_h3x9-243" style="edgeStyle=orthogonalEdgeStyle;rounded=0;orthogonalLoop=1;jettySize=auto;html=1;curved=0;strokeWidth=2;" edge="1" parent="1" source="gcZu40GBeY7oq4u_h3x9-118" target="gcZu40GBeY7oq4u_h3x9-122">
          <mxGeometry relative="1" as="geometry">
            <mxPoint x="2310" y="1210" as="sourcePoint" />
            <mxPoint x="2440" y="1210" as="targetPoint" />
            <Array as="points">
              <mxPoint x="2420" y="1210" />
              <mxPoint x="2420" y="1210" />
            </Array>
          </mxGeometry>
        </mxCell>
        <mxCell id="gcZu40GBeY7oq4u_h3x9-244" value="征信中间变量申请" style="edgeLabel;html=1;align=center;verticalAlign=middle;resizable=0;points=[];" vertex="1" connectable="0" parent="gcZu40GBeY7oq4u_h3x9-243">
          <mxGeometry x="-0.2457" relative="1" as="geometry">
            <mxPoint x="12" as="offset" />
          </mxGeometry>
        </mxCell>
        <mxCell id="gcZu40GBeY7oq4u_h3x9-245" style="edgeStyle=orthogonalEdgeStyle;rounded=0;orthogonalLoop=1;jettySize=auto;html=1;curved=0;strokeWidth=2;" edge="1" parent="1" source="gcZu40GBeY7oq4u_h3x9-122" target="gcZu40GBeY7oq4u_h3x9-118">
          <mxGeometry relative="1" as="geometry">
            <mxPoint x="2440" y="1230" as="sourcePoint" />
            <mxPoint x="2310" y="1230" as="targetPoint" />
            <Array as="points">
              <mxPoint x="2430" y="1230" />
              <mxPoint x="2430" y="1230" />
            </Array>
          </mxGeometry>
        </mxCell>
        <mxCell id="gcZu40GBeY7oq4u_h3x9-246" value="中间变量返回" style="edgeLabel;html=1;align=center;verticalAlign=middle;resizable=0;points=[];" vertex="1" connectable="0" parent="gcZu40GBeY7oq4u_h3x9-245">
          <mxGeometry x="0.2457" y="-3" relative="1" as="geometry">
            <mxPoint x="12" y="3" as="offset" />
          </mxGeometry>
        </mxCell>
        <mxCell id="gcZu40GBeY7oq4u_h3x9-247" style="edgeStyle=orthogonalEdgeStyle;rounded=0;orthogonalLoop=1;jettySize=auto;html=1;curved=0;strokeWidth=2;" edge="1" parent="1" target="gcZu40GBeY7oq4u_h3x9-122">
          <mxGeometry relative="1" as="geometry">
            <mxPoint x="2305" y="1260" as="sourcePoint" />
            <mxPoint x="2440" y="1260" as="targetPoint" />
            <Array as="points">
              <mxPoint x="2305" y="1261" />
            </Array>
          </mxGeometry>
        </mxCell>
        <mxCell id="gcZu40GBeY7oq4u_h3x9-248" value="征信中间变量申请" style="edgeLabel;html=1;align=center;verticalAlign=middle;resizable=0;points=[];" vertex="1" connectable="0" parent="gcZu40GBeY7oq4u_h3x9-247">
          <mxGeometry x="-0.2457" relative="1" as="geometry">
            <mxPoint x="12" as="offset" />
          </mxGeometry>
        </mxCell>
        <mxCell id="gcZu40GBeY7oq4u_h3x9-249" style="edgeStyle=orthogonalEdgeStyle;rounded=0;orthogonalLoop=1;jettySize=auto;html=1;curved=0;strokeWidth=2;" edge="1" parent="1" source="gcZu40GBeY7oq4u_h3x9-122" target="gcZu40GBeY7oq4u_h3x9-118">
          <mxGeometry relative="1" as="geometry">
            <mxPoint x="2440" y="1290" as="sourcePoint" />
            <mxPoint x="2310" y="1290" as="targetPoint" />
            <Array as="points">
              <mxPoint x="2340" y="1280" />
              <mxPoint x="2340" y="1280" />
            </Array>
          </mxGeometry>
        </mxCell>
        <mxCell id="gcZu40GBeY7oq4u_h3x9-250" value="规则结果返回" style="edgeLabel;html=1;align=center;verticalAlign=middle;resizable=0;points=[];" vertex="1" connectable="0" parent="gcZu40GBeY7oq4u_h3x9-249">
          <mxGeometry x="-0.0457" y="1" relative="1" as="geometry">
            <mxPoint as="offset" />
          </mxGeometry>
        </mxCell>
        <mxCell id="gcZu40GBeY7oq4u_h3x9-251" value="" style="endArrow=block;html=1;rounded=0;strokeWidth=2;endFill=1;strokeColor=#FF3333;" edge="1" parent="1" source="gcZu40GBeY7oq4u_h3x9-65" target="gcZu40GBeY7oq4u_h3x9-37">
          <mxGeometry width="50" height="50" relative="1" as="geometry">
            <mxPoint x="720" y="1330" as="sourcePoint" />
            <mxPoint x="840" y="1330" as="targetPoint" />
            <Array as="points">
              <mxPoint x="815" y="1330" />
            </Array>
          </mxGeometry>
        </mxCell>
        <mxCell id="gcZu40GBeY7oq4u_h3x9-252" value="&lt;font color=&quot;#ff3333&quot;&gt;&lt;br&gt;&lt;/font&gt;" style="edgeLabel;html=1;align=center;verticalAlign=middle;resizable=0;points=[];" vertex="1" connectable="0" parent="gcZu40GBeY7oq4u_h3x9-251">
          <mxGeometry x="0.0292" y="-3" relative="1" as="geometry">
            <mxPoint y="-3" as="offset" />
          </mxGeometry>
        </mxCell>
        <mxCell id="gcZu40GBeY7oq4u_h3x9-253" value="&lt;font color=&quot;#ff3333&quot;&gt;授信结果&lt;/font&gt;" style="edgeLabel;html=1;align=center;verticalAlign=middle;resizable=0;points=[];" vertex="1" connectable="0" parent="gcZu40GBeY7oq4u_h3x9-251">
          <mxGeometry x="0.034" y="-1" relative="1" as="geometry">
            <mxPoint as="offset" />
          </mxGeometry>
        </mxCell>
        <mxCell id="gcZu40GBeY7oq4u_h3x9-254" value="" style="endArrow=block;html=1;rounded=0;strokeWidth=2;endFill=1;strokeColor=#000000;fontColor=#FFFFFF;" edge="1" parent="1" source="gcZu40GBeY7oq4u_h3x9-37" target="gcZu40GBeY7oq4u_h3x9-83">
          <mxGeometry width="50" height="50" relative="1" as="geometry">
            <mxPoint x="1150" y="1330" as="sourcePoint" />
            <mxPoint x="1340" y="1330" as="targetPoint" />
            <Array as="points">
              <mxPoint x="1250" y="1330" />
            </Array>
          </mxGeometry>
        </mxCell>
        <mxCell id="gcZu40GBeY7oq4u_h3x9-255" value="&lt;font color=&quot;#ff3333&quot;&gt;&lt;br&gt;&lt;/font&gt;" style="edgeLabel;html=1;align=center;verticalAlign=middle;resizable=0;points=[];" vertex="1" connectable="0" parent="gcZu40GBeY7oq4u_h3x9-254">
          <mxGeometry x="0.0292" y="-3" relative="1" as="geometry">
            <mxPoint y="-3" as="offset" />
          </mxGeometry>
        </mxCell>
        <mxCell id="gcZu40GBeY7oq4u_h3x9-256" value="放款请求" style="edgeLabel;html=1;align=center;verticalAlign=middle;resizable=0;points=[];" vertex="1" connectable="0" parent="gcZu40GBeY7oq4u_h3x9-254">
          <mxGeometry x="0.034" y="-1" relative="1" as="geometry">
            <mxPoint as="offset" />
          </mxGeometry>
        </mxCell>
        <mxCell id="gcZu40GBeY7oq4u_h3x9-257" value="" style="endArrow=block;html=1;rounded=0;strokeWidth=2;endFill=1;strokeColor=#000000;fontColor=#FFFFFF;" edge="1" parent="1">
          <mxGeometry width="50" height="50" relative="1" as="geometry">
            <mxPoint x="1355" y="1370" as="sourcePoint" />
            <mxPoint x="1147" y="1370" as="targetPoint" />
            <Array as="points">
              <mxPoint x="1243" y="1370" />
            </Array>
          </mxGeometry>
        </mxCell>
        <mxCell id="gcZu40GBeY7oq4u_h3x9-258" value="&lt;font color=&quot;#ff3333&quot;&gt;&lt;br&gt;&lt;/font&gt;" style="edgeLabel;html=1;align=center;verticalAlign=middle;resizable=0;points=[];" vertex="1" connectable="0" parent="gcZu40GBeY7oq4u_h3x9-257">
          <mxGeometry x="0.0292" y="-3" relative="1" as="geometry">
            <mxPoint y="-3" as="offset" />
          </mxGeometry>
        </mxCell>
        <mxCell id="gcZu40GBeY7oq4u_h3x9-259" value="&lt;font style=&quot;color: rgb(0, 0, 0);&quot;&gt;放款结果&lt;/font&gt;" style="edgeLabel;html=1;align=center;verticalAlign=middle;resizable=0;points=[];" vertex="1" connectable="0" parent="gcZu40GBeY7oq4u_h3x9-257">
          <mxGeometry x="0.034" y="-1" relative="1" as="geometry">
            <mxPoint as="offset" />
          </mxGeometry>
        </mxCell>
        <mxCell id="gcZu40GBeY7oq4u_h3x9-260" value="" style="endArrow=block;html=1;rounded=0;strokeWidth=2;endFill=1;strokeColor=#000000;fontColor=#FFFFFF;" edge="1" parent="1" source="gcZu40GBeY7oq4u_h3x9-83" target="gcZu40GBeY7oq4u_h3x9-90">
          <mxGeometry width="50" height="50" relative="1" as="geometry">
            <mxPoint x="1380" y="1330" as="sourcePoint" />
            <mxPoint x="1500" y="1330" as="targetPoint" />
            <Array as="points">
              <mxPoint x="1483" y="1330" />
            </Array>
          </mxGeometry>
        </mxCell>
        <mxCell id="gcZu40GBeY7oq4u_h3x9-261" value="&lt;font color=&quot;#ff3333&quot;&gt;&lt;br&gt;&lt;/font&gt;" style="edgeLabel;html=1;align=center;verticalAlign=middle;resizable=0;points=[];" vertex="1" connectable="0" parent="gcZu40GBeY7oq4u_h3x9-260">
          <mxGeometry x="0.0292" y="-3" relative="1" as="geometry">
            <mxPoint y="-3" as="offset" />
          </mxGeometry>
        </mxCell>
        <mxCell id="gcZu40GBeY7oq4u_h3x9-262" value="放款" style="edgeLabel;html=1;align=center;verticalAlign=middle;resizable=0;points=[];" vertex="1" connectable="0" parent="gcZu40GBeY7oq4u_h3x9-260">
          <mxGeometry x="0.034" y="-1" relative="1" as="geometry">
            <mxPoint as="offset" />
          </mxGeometry>
        </mxCell>
        <mxCell id="gcZu40GBeY7oq4u_h3x9-263" value="" style="endArrow=block;html=1;rounded=0;strokeWidth=2;endFill=1;strokeColor=#000000;fontColor=#FFFFFF;" edge="1" parent="1">
          <mxGeometry width="50" height="50" relative="1" as="geometry">
            <mxPoint x="1505" y="1370" as="sourcePoint" />
            <mxPoint x="1375" y="1370" as="targetPoint" />
            <Array as="points">
              <mxPoint x="1483" y="1370" />
            </Array>
          </mxGeometry>
        </mxCell>
        <mxCell id="gcZu40GBeY7oq4u_h3x9-264" value="&lt;font color=&quot;#ff3333&quot;&gt;&lt;br&gt;&lt;/font&gt;" style="edgeLabel;html=1;align=center;verticalAlign=middle;resizable=0;points=[];" vertex="1" connectable="0" parent="gcZu40GBeY7oq4u_h3x9-263">
          <mxGeometry x="0.0292" y="-3" relative="1" as="geometry">
            <mxPoint y="-3" as="offset" />
          </mxGeometry>
        </mxCell>
        <mxCell id="gcZu40GBeY7oq4u_h3x9-265" value="放款结果" style="edgeLabel;html=1;align=center;verticalAlign=middle;resizable=0;points=[];" vertex="1" connectable="0" parent="gcZu40GBeY7oq4u_h3x9-263">
          <mxGeometry x="0.034" y="-1" relative="1" as="geometry">
            <mxPoint as="offset" />
          </mxGeometry>
        </mxCell>
        <mxCell id="gcZu40GBeY7oq4u_h3x9-266" value="" style="endArrow=block;html=1;rounded=0;strokeWidth=2;endFill=1;strokeColor=#000000;fillColor=#000000;" edge="1" parent="1" target="gcZu40GBeY7oq4u_h3x9-5">
          <mxGeometry width="50" height="50" relative="1" as="geometry">
            <mxPoint x="1128" y="1370" as="sourcePoint" />
            <mxPoint x="640" y="1370" as="targetPoint" />
            <Array as="points">
              <mxPoint x="744" y="1370" />
            </Array>
          </mxGeometry>
        </mxCell>
        <mxCell id="gcZu40GBeY7oq4u_h3x9-267" value="放款结果通知" style="edgeLabel;html=1;align=center;verticalAlign=middle;resizable=0;points=[];" vertex="1" connectable="0" parent="gcZu40GBeY7oq4u_h3x9-266">
          <mxGeometry x="-0.0401" relative="1" as="geometry">
            <mxPoint as="offset" />
          </mxGeometry>
        </mxCell>
      </root>
    </mxGraphModel>
  </diagram>
</mxfile>
